G04 #@! TF.FileFunction,Copper,L2,Bot,Signal*
%FSLAX46Y46*%
G04 Gerber Fmt 4.6, Leading zero omitted, Abs format (unit mm)*
G04 Created by KiCad (PCBNEW 4.0.5) date Wednesday, 05 April 2017 'AMt' 09:54:50*
%MOMM*%
%LPD*%
G01*
G04 APERTURE LIST*
%ADD10C,0.100000*%
%ADD11R,2.400000X1.600000*%
%ADD12O,2.400000X1.600000*%
%ADD13R,2.000000X2.000000*%
%ADD14C,2.000000*%
%ADD15R,1.800000X1.800000*%
%ADD16C,1.800000*%
%ADD17O,1.800000X1.800000*%
%ADD18R,1.980000X3.960000*%
%ADD19O,1.980000X3.960000*%
%ADD20R,3.960000X1.980000*%
%ADD21O,3.960000X1.980000*%
%ADD22O,2.032000X2.540000*%
%ADD23C,1.400000*%
%ADD24O,1.400000X1.400000*%
%ADD25C,1.500000*%
%ADD26R,1.600000X1.600000*%
%ADD27C,1.600000*%
%ADD28C,0.500000*%
%ADD29C,0.254000*%
G04 APERTURE END LIST*
D10*
D11*
X138000000Y-119000000D03*
D12*
X145620000Y-152020000D03*
X138000000Y-121540000D03*
X145620000Y-149480000D03*
X138000000Y-124080000D03*
X145620000Y-146940000D03*
X138000000Y-126620000D03*
X145620000Y-144400000D03*
X138000000Y-129160000D03*
X145620000Y-141860000D03*
X138000000Y-131700000D03*
X145620000Y-139320000D03*
X138000000Y-134240000D03*
X145620000Y-136780000D03*
X138000000Y-136780000D03*
X145620000Y-134240000D03*
X138000000Y-139320000D03*
X145620000Y-131700000D03*
X138000000Y-141860000D03*
X145620000Y-129160000D03*
X138000000Y-144400000D03*
X145620000Y-126620000D03*
X138000000Y-146940000D03*
X145620000Y-124080000D03*
X138000000Y-149480000D03*
X145620000Y-121540000D03*
X138000000Y-152020000D03*
X145620000Y-119000000D03*
D13*
X118000000Y-135000000D03*
D14*
X123000000Y-135000000D03*
D13*
X123000000Y-117000000D03*
D14*
X118000000Y-117000000D03*
D15*
X127000000Y-151000000D03*
D16*
X129540000Y-151000000D03*
D15*
X118000000Y-142000000D03*
D17*
X118000000Y-147080000D03*
D15*
X138000000Y-112000000D03*
D16*
X140540000Y-112000000D03*
D18*
X123000000Y-151000000D03*
D19*
X118000000Y-151000000D03*
D20*
X145000000Y-116000000D03*
D21*
X145000000Y-111000000D03*
D22*
X131000000Y-112000000D03*
X128460000Y-112000000D03*
X133540000Y-112000000D03*
D23*
X135000000Y-151000000D03*
D24*
X132460000Y-151000000D03*
D23*
X129000000Y-128000000D03*
D24*
X131540000Y-128000000D03*
D23*
X133000000Y-122000000D03*
D24*
X133000000Y-119460000D03*
D23*
X129000000Y-125000000D03*
D24*
X131540000Y-125000000D03*
D22*
X121000000Y-127000000D03*
X123540000Y-127000000D03*
X118460000Y-127000000D03*
D25*
X133000000Y-141000000D03*
X133000000Y-145900000D03*
D14*
X128000000Y-135500000D03*
X128000000Y-131000000D03*
X134500000Y-135500000D03*
X134500000Y-131000000D03*
D26*
X129000000Y-122000000D03*
D27*
X129000000Y-119500000D03*
D26*
X128000000Y-140000000D03*
D27*
X125500000Y-140000000D03*
D26*
X126000000Y-145000000D03*
D27*
X123500000Y-145000000D03*
D28*
X118000000Y-135000000D02*
X118000000Y-127460000D01*
X118000000Y-127460000D02*
X118460000Y-127000000D01*
X118000000Y-142000000D02*
X118000000Y-135000000D01*
X145620000Y-134240000D02*
X146240000Y-134240000D01*
X146240000Y-134240000D02*
X148000000Y-136000000D01*
X148000000Y-136000000D02*
X148000000Y-153000000D01*
X148000000Y-153000000D02*
X147000000Y-154000000D01*
X147000000Y-154000000D02*
X142000000Y-154000000D01*
X142000000Y-154000000D02*
X141000000Y-153000000D01*
X141000000Y-153000000D02*
X141000000Y-138000000D01*
X141000000Y-138000000D02*
X139780000Y-136780000D01*
X139780000Y-136780000D02*
X138000000Y-136780000D01*
X129000000Y-119500000D02*
X129000000Y-112540000D01*
X129000000Y-112540000D02*
X128460000Y-112000000D01*
X118000000Y-117000000D02*
X118000000Y-116000000D01*
X118000000Y-116000000D02*
X122000000Y-112000000D01*
X122000000Y-112000000D02*
X128460000Y-112000000D01*
X128000000Y-135500000D02*
X134500000Y-135500000D01*
X134500000Y-135500000D02*
X135780000Y-136780000D01*
X135780000Y-136780000D02*
X138000000Y-136780000D01*
X121000000Y-127000000D02*
X121000000Y-120000000D01*
X121000000Y-120000000D02*
X118000000Y-117000000D01*
X123000000Y-135000000D02*
X123000000Y-132000000D01*
X121000000Y-130000000D02*
X121000000Y-127000000D01*
X123000000Y-132000000D02*
X121000000Y-130000000D01*
X125500000Y-140000000D02*
X125500000Y-137500000D01*
X125500000Y-137500000D02*
X123000000Y-135000000D01*
X125500000Y-138000000D02*
X128000000Y-135500000D01*
X125500000Y-140000000D02*
X125500000Y-138000000D01*
X123500000Y-145000000D02*
X123500000Y-142000000D01*
X123500000Y-142000000D02*
X125500000Y-140000000D01*
X123000000Y-151000000D02*
X123000000Y-145500000D01*
X123000000Y-145500000D02*
X123500000Y-145000000D01*
X123000000Y-151000000D02*
X127000000Y-151000000D01*
X123540000Y-127000000D02*
X123540000Y-117540000D01*
X123540000Y-117540000D02*
X123000000Y-117000000D01*
X133000000Y-122000000D02*
X135000000Y-122000000D01*
X144000000Y-117000000D02*
X145000000Y-116000000D01*
X137000000Y-117000000D02*
X144000000Y-117000000D01*
X135000000Y-119000000D02*
X137000000Y-117000000D01*
X135000000Y-122000000D02*
X135000000Y-119000000D01*
X129000000Y-122000000D02*
X133000000Y-122000000D01*
X129000000Y-125000000D02*
X129000000Y-122000000D01*
X129000000Y-125000000D02*
X129000000Y-126000000D01*
X129000000Y-126000000D02*
X128000000Y-127000000D01*
X123540000Y-127000000D02*
X128000000Y-127000000D01*
X128000000Y-127000000D02*
X129000000Y-128000000D01*
X145620000Y-136780000D02*
X145620000Y-139320000D01*
X138000000Y-134240000D02*
X140240000Y-134240000D01*
X142780000Y-136780000D02*
X145620000Y-136780000D01*
X140240000Y-134240000D02*
X142780000Y-136780000D01*
X123540000Y-127000000D02*
X123540000Y-129540000D01*
X136760000Y-133000000D02*
X138000000Y-134240000D01*
X127000000Y-133000000D02*
X136760000Y-133000000D01*
X123540000Y-129540000D02*
X127000000Y-133000000D01*
X133000000Y-141000000D02*
X134000000Y-140000000D01*
X134000000Y-140000000D02*
X137320000Y-140000000D01*
X137320000Y-140000000D02*
X138000000Y-139320000D01*
X128000000Y-140000000D02*
X132000000Y-140000000D01*
X132000000Y-140000000D02*
X133000000Y-141000000D01*
X133000000Y-145900000D02*
X133000000Y-145000000D01*
X136140000Y-141860000D02*
X138000000Y-141860000D01*
X133000000Y-145000000D02*
X136140000Y-141860000D01*
X126000000Y-145000000D02*
X132100000Y-145000000D01*
X132100000Y-145000000D02*
X133000000Y-145900000D01*
X129540000Y-151000000D02*
X132460000Y-151000000D01*
X118000000Y-151000000D02*
X118000000Y-147080000D01*
X133000000Y-119460000D02*
X133540000Y-119460000D01*
X133540000Y-119460000D02*
X139000000Y-114000000D01*
X139000000Y-114000000D02*
X140000000Y-114000000D01*
X140000000Y-114000000D02*
X140540000Y-113460000D01*
X140540000Y-113460000D02*
X140540000Y-112000000D01*
X131000000Y-112000000D02*
X131000000Y-111000000D01*
X131000000Y-111000000D02*
X132000000Y-110000000D01*
X132000000Y-110000000D02*
X144000000Y-110000000D01*
X144000000Y-110000000D02*
X145000000Y-111000000D01*
X131540000Y-125000000D02*
X136000000Y-125000000D01*
X136000000Y-120000000D02*
X137000000Y-119000000D01*
X136000000Y-125000000D02*
X136000000Y-120000000D01*
X137000000Y-119000000D02*
X138000000Y-119000000D01*
X135000000Y-151000000D02*
X136000000Y-150000000D01*
X136000000Y-150000000D02*
X137480000Y-150000000D01*
X137480000Y-150000000D02*
X138000000Y-149480000D01*
X131540000Y-128000000D02*
X135000000Y-128000000D01*
X136380000Y-126620000D02*
X138000000Y-126620000D01*
X135000000Y-128000000D02*
X136380000Y-126620000D01*
X128000000Y-131000000D02*
X134500000Y-131000000D01*
X134500000Y-131000000D02*
X134000000Y-130500000D01*
X134000000Y-130500000D02*
X134000000Y-130460000D01*
X134000000Y-130460000D02*
X131540000Y-128000000D01*
D29*
G36*
X130613951Y-110134469D02*
X130368190Y-110183354D01*
X129832567Y-110541246D01*
X129715946Y-110715781D01*
X129537630Y-110488764D01*
X128974477Y-110172074D01*
X128842944Y-110140025D01*
X128587000Y-110259164D01*
X128587000Y-111873000D01*
X128607000Y-111873000D01*
X128607000Y-112127000D01*
X128587000Y-112127000D01*
X128587000Y-113740836D01*
X128842944Y-113859975D01*
X128974477Y-113827926D01*
X129537630Y-113511236D01*
X129715946Y-113284219D01*
X129832567Y-113458754D01*
X130368190Y-113816646D01*
X131000000Y-113942321D01*
X131631810Y-113816646D01*
X132167433Y-113458754D01*
X132270000Y-113305252D01*
X132372567Y-113458754D01*
X132908190Y-113816646D01*
X133540000Y-113942321D01*
X134171810Y-113816646D01*
X134707433Y-113458754D01*
X135065325Y-112923131D01*
X135191000Y-112291321D01*
X135191000Y-112285750D01*
X136465000Y-112285750D01*
X136465000Y-113026310D01*
X136561673Y-113259699D01*
X136740302Y-113438327D01*
X136973691Y-113535000D01*
X137714250Y-113535000D01*
X137873000Y-113376250D01*
X137873000Y-112127000D01*
X136623750Y-112127000D01*
X136465000Y-112285750D01*
X135191000Y-112285750D01*
X135191000Y-111708679D01*
X135065325Y-111076869D01*
X134937122Y-110885000D01*
X136501737Y-110885000D01*
X136465000Y-110973690D01*
X136465000Y-111714250D01*
X136623750Y-111873000D01*
X137873000Y-111873000D01*
X137873000Y-111853000D01*
X138127000Y-111853000D01*
X138127000Y-111873000D01*
X138147000Y-111873000D01*
X138147000Y-112127000D01*
X138127000Y-112127000D01*
X138127000Y-113376250D01*
X138249585Y-113498835D01*
X133533105Y-118215316D01*
X133510882Y-118200467D01*
X133000000Y-118098846D01*
X132489118Y-118200467D01*
X132056012Y-118489858D01*
X131766621Y-118922964D01*
X131665000Y-119433846D01*
X131665000Y-119486154D01*
X131766621Y-119997036D01*
X132056012Y-120430142D01*
X132489118Y-120719533D01*
X132566045Y-120734835D01*
X132244771Y-120867582D01*
X131996921Y-121115000D01*
X130431446Y-121115000D01*
X130403162Y-120964683D01*
X130264090Y-120748559D01*
X130051890Y-120603569D01*
X129813799Y-120555354D01*
X129828139Y-120507745D01*
X129000000Y-119679605D01*
X128171861Y-120507745D01*
X128186145Y-120555167D01*
X127964683Y-120596838D01*
X127748559Y-120735910D01*
X127603569Y-120948110D01*
X127552560Y-121200000D01*
X127552560Y-122800000D01*
X127596838Y-123035317D01*
X127735910Y-123251441D01*
X127948110Y-123396431D01*
X128115000Y-123430227D01*
X128115000Y-123997127D01*
X127868902Y-124242796D01*
X127665232Y-124733287D01*
X127664769Y-125264383D01*
X127867582Y-125755229D01*
X127930332Y-125818089D01*
X127633420Y-126115000D01*
X125072910Y-126115000D01*
X125065325Y-126076869D01*
X124707433Y-125541246D01*
X124425000Y-125352530D01*
X124425000Y-119283223D01*
X127553035Y-119283223D01*
X127580222Y-119853454D01*
X127746136Y-120254005D01*
X127992255Y-120328139D01*
X128820395Y-119500000D01*
X129179605Y-119500000D01*
X130007745Y-120328139D01*
X130253864Y-120254005D01*
X130446965Y-119716777D01*
X130419778Y-119146546D01*
X130253864Y-118745995D01*
X130007745Y-118671861D01*
X129179605Y-119500000D01*
X128820395Y-119500000D01*
X127992255Y-118671861D01*
X127746136Y-118745995D01*
X127553035Y-119283223D01*
X124425000Y-119283223D01*
X124425000Y-118492255D01*
X128171861Y-118492255D01*
X129000000Y-119320395D01*
X129828139Y-118492255D01*
X129754005Y-118246136D01*
X129216777Y-118053035D01*
X128646546Y-118080222D01*
X128245995Y-118246136D01*
X128171861Y-118492255D01*
X124425000Y-118492255D01*
X124425000Y-118481104D01*
X124451441Y-118464090D01*
X124596431Y-118251890D01*
X124647440Y-118000000D01*
X124647440Y-116000000D01*
X124603162Y-115764683D01*
X124464090Y-115548559D01*
X124251890Y-115403569D01*
X124000000Y-115352560D01*
X122000000Y-115352560D01*
X121764683Y-115396838D01*
X121548559Y-115535910D01*
X121403569Y-115748110D01*
X121352560Y-116000000D01*
X121352560Y-118000000D01*
X121396838Y-118235317D01*
X121535910Y-118451441D01*
X121748110Y-118596431D01*
X122000000Y-118647440D01*
X122655000Y-118647440D01*
X122655000Y-125352530D01*
X122372567Y-125541246D01*
X122255946Y-125715781D01*
X122077630Y-125488764D01*
X121514477Y-125172074D01*
X121382944Y-125140025D01*
X121127000Y-125259164D01*
X121127000Y-126873000D01*
X121147000Y-126873000D01*
X121147000Y-127127000D01*
X121127000Y-127127000D01*
X121127000Y-128740836D01*
X121382944Y-128859975D01*
X121514477Y-128827926D01*
X122077630Y-128511236D01*
X122255946Y-128284219D01*
X122372567Y-128458754D01*
X122655000Y-128647470D01*
X122655000Y-129539995D01*
X122654999Y-129540000D01*
X122688646Y-129709151D01*
X122722367Y-129878675D01*
X122884500Y-130121325D01*
X122914210Y-130165790D01*
X126374208Y-133625787D01*
X126374210Y-133625790D01*
X126661325Y-133817633D01*
X126717516Y-133828810D01*
X127000000Y-133885001D01*
X127000005Y-133885000D01*
X127597988Y-133885000D01*
X127125736Y-134080613D01*
X127027073Y-134347468D01*
X128000000Y-135320395D01*
X128972927Y-134347468D01*
X128874264Y-134080613D01*
X128347734Y-133885000D01*
X134097988Y-133885000D01*
X133625736Y-134080613D01*
X133527073Y-134347468D01*
X134500000Y-135320395D01*
X135472927Y-134347468D01*
X135374264Y-134080613D01*
X134847734Y-133885000D01*
X136199664Y-133885000D01*
X136129050Y-134240000D01*
X136238283Y-134789151D01*
X136549352Y-135254698D01*
X136927707Y-135507507D01*
X136495500Y-135855104D01*
X136225633Y-136348181D01*
X136208096Y-136430961D01*
X136330085Y-136653000D01*
X137873000Y-136653000D01*
X137873000Y-136633000D01*
X138127000Y-136633000D01*
X138127000Y-136653000D01*
X139669915Y-136653000D01*
X139791904Y-136430961D01*
X139774367Y-136348181D01*
X139504500Y-135855104D01*
X139072293Y-135507507D01*
X139450648Y-135254698D01*
X139537310Y-135125000D01*
X139873420Y-135125000D01*
X142154208Y-137405787D01*
X142154210Y-137405790D01*
X142441325Y-137597633D01*
X142780000Y-137665000D01*
X144082690Y-137665000D01*
X144169352Y-137794698D01*
X144551438Y-138050000D01*
X144169352Y-138305302D01*
X143858283Y-138770849D01*
X143749050Y-139320000D01*
X143858283Y-139869151D01*
X144169352Y-140334698D01*
X144551438Y-140590000D01*
X144169352Y-140845302D01*
X143858283Y-141310849D01*
X143749050Y-141860000D01*
X143858283Y-142409151D01*
X144169352Y-142874698D01*
X144551438Y-143130000D01*
X144169352Y-143385302D01*
X143858283Y-143850849D01*
X143749050Y-144400000D01*
X143858283Y-144949151D01*
X144169352Y-145414698D01*
X144551438Y-145670000D01*
X144169352Y-145925302D01*
X143858283Y-146390849D01*
X143749050Y-146940000D01*
X143858283Y-147489151D01*
X144169352Y-147954698D01*
X144551438Y-148210000D01*
X144169352Y-148465302D01*
X143858283Y-148930849D01*
X143749050Y-149480000D01*
X143858283Y-150029151D01*
X144169352Y-150494698D01*
X144551438Y-150750000D01*
X144169352Y-151005302D01*
X143858283Y-151470849D01*
X143749050Y-152020000D01*
X143858283Y-152569151D01*
X144169352Y-153034698D01*
X144634899Y-153345767D01*
X145184050Y-153455000D01*
X146055950Y-153455000D01*
X146605101Y-153345767D01*
X147070648Y-153034698D01*
X147381717Y-152569151D01*
X147490950Y-152020000D01*
X147381717Y-151470849D01*
X147070648Y-151005302D01*
X146688562Y-150750000D01*
X147070648Y-150494698D01*
X147381717Y-150029151D01*
X147490950Y-149480000D01*
X147381717Y-148930849D01*
X147070648Y-148465302D01*
X146688562Y-148210000D01*
X147070648Y-147954698D01*
X147381717Y-147489151D01*
X147490950Y-146940000D01*
X147381717Y-146390849D01*
X147070648Y-145925302D01*
X146688562Y-145670000D01*
X147070648Y-145414698D01*
X147381717Y-144949151D01*
X147490950Y-144400000D01*
X147381717Y-143850849D01*
X147070648Y-143385302D01*
X146688562Y-143130000D01*
X147070648Y-142874698D01*
X147381717Y-142409151D01*
X147490950Y-141860000D01*
X147381717Y-141310849D01*
X147070648Y-140845302D01*
X146688562Y-140590000D01*
X147070648Y-140334698D01*
X147381717Y-139869151D01*
X147490950Y-139320000D01*
X147381717Y-138770849D01*
X147070648Y-138305302D01*
X146688562Y-138050000D01*
X147070648Y-137794698D01*
X147381717Y-137329151D01*
X147490950Y-136780000D01*
X147381717Y-136230849D01*
X147070648Y-135765302D01*
X146692293Y-135512493D01*
X147124500Y-135164896D01*
X147394367Y-134671819D01*
X147411904Y-134589039D01*
X147289915Y-134367000D01*
X145747000Y-134367000D01*
X145747000Y-134387000D01*
X145493000Y-134387000D01*
X145493000Y-134367000D01*
X143950085Y-134367000D01*
X143828096Y-134589039D01*
X143845633Y-134671819D01*
X144115500Y-135164896D01*
X144547707Y-135512493D01*
X144169352Y-135765302D01*
X144082690Y-135895000D01*
X143146579Y-135895000D01*
X140865790Y-133614210D01*
X140815508Y-133580613D01*
X140578675Y-133422367D01*
X140484172Y-133403569D01*
X140240000Y-133354999D01*
X140239995Y-133355000D01*
X139537310Y-133355000D01*
X139450648Y-133225302D01*
X139068562Y-132970000D01*
X139450648Y-132714698D01*
X139761717Y-132249151D01*
X139870950Y-131700000D01*
X139761717Y-131150849D01*
X139450648Y-130685302D01*
X139068562Y-130430000D01*
X139450648Y-130174698D01*
X139761717Y-129709151D01*
X139870950Y-129160000D01*
X139761717Y-128610849D01*
X139450648Y-128145302D01*
X139068562Y-127890000D01*
X139450648Y-127634698D01*
X139761717Y-127169151D01*
X139870950Y-126620000D01*
X139761717Y-126070849D01*
X139450648Y-125605302D01*
X139068562Y-125350000D01*
X139450648Y-125094698D01*
X139761717Y-124629151D01*
X139870950Y-124080000D01*
X139761717Y-123530849D01*
X139450648Y-123065302D01*
X139068562Y-122810000D01*
X139450648Y-122554698D01*
X139761717Y-122089151D01*
X139870950Y-121540000D01*
X139761717Y-120990849D01*
X139450648Y-120525302D01*
X139304650Y-120427749D01*
X139435317Y-120403162D01*
X139651441Y-120264090D01*
X139796431Y-120051890D01*
X139847440Y-119800000D01*
X139847440Y-118200000D01*
X139803162Y-117964683D01*
X139751887Y-117885000D01*
X143999995Y-117885000D01*
X144000000Y-117885001D01*
X144282484Y-117828810D01*
X144338675Y-117817633D01*
X144608354Y-117637440D01*
X144819870Y-117637440D01*
X144634899Y-117674233D01*
X144169352Y-117985302D01*
X143858283Y-118450849D01*
X143749050Y-119000000D01*
X143858283Y-119549151D01*
X144169352Y-120014698D01*
X144551438Y-120270000D01*
X144169352Y-120525302D01*
X143858283Y-120990849D01*
X143749050Y-121540000D01*
X143858283Y-122089151D01*
X144169352Y-122554698D01*
X144551438Y-122810000D01*
X144169352Y-123065302D01*
X143858283Y-123530849D01*
X143749050Y-124080000D01*
X143858283Y-124629151D01*
X144169352Y-125094698D01*
X144551438Y-125350000D01*
X144169352Y-125605302D01*
X143858283Y-126070849D01*
X143749050Y-126620000D01*
X143858283Y-127169151D01*
X144169352Y-127634698D01*
X144551438Y-127890000D01*
X144169352Y-128145302D01*
X143858283Y-128610849D01*
X143749050Y-129160000D01*
X143858283Y-129709151D01*
X144169352Y-130174698D01*
X144551438Y-130430000D01*
X144169352Y-130685302D01*
X143858283Y-131150849D01*
X143749050Y-131700000D01*
X143858283Y-132249151D01*
X144169352Y-132714698D01*
X144547707Y-132967507D01*
X144115500Y-133315104D01*
X143845633Y-133808181D01*
X143828096Y-133890961D01*
X143950085Y-134113000D01*
X145493000Y-134113000D01*
X145493000Y-134093000D01*
X145747000Y-134093000D01*
X145747000Y-134113000D01*
X147289915Y-134113000D01*
X147411904Y-133890961D01*
X147394367Y-133808181D01*
X147124500Y-133315104D01*
X146692293Y-132967507D01*
X147070648Y-132714698D01*
X147381717Y-132249151D01*
X147490950Y-131700000D01*
X147381717Y-131150849D01*
X147070648Y-130685302D01*
X146688562Y-130430000D01*
X147070648Y-130174698D01*
X147381717Y-129709151D01*
X147490950Y-129160000D01*
X147381717Y-128610849D01*
X147070648Y-128145302D01*
X146688562Y-127890000D01*
X147070648Y-127634698D01*
X147381717Y-127169151D01*
X147490950Y-126620000D01*
X147381717Y-126070849D01*
X147070648Y-125605302D01*
X146688562Y-125350000D01*
X147070648Y-125094698D01*
X147381717Y-124629151D01*
X147490950Y-124080000D01*
X147381717Y-123530849D01*
X147070648Y-123065302D01*
X146688562Y-122810000D01*
X147070648Y-122554698D01*
X147381717Y-122089151D01*
X147490950Y-121540000D01*
X147381717Y-120990849D01*
X147070648Y-120525302D01*
X146688562Y-120270000D01*
X147070648Y-120014698D01*
X147381717Y-119549151D01*
X147490950Y-119000000D01*
X147381717Y-118450849D01*
X147070648Y-117985302D01*
X146605101Y-117674233D01*
X146420130Y-117637440D01*
X146980000Y-117637440D01*
X147215317Y-117593162D01*
X147431441Y-117454090D01*
X147576431Y-117241890D01*
X147627440Y-116990000D01*
X147627440Y-115010000D01*
X147583162Y-114774683D01*
X147444090Y-114558559D01*
X147231890Y-114413569D01*
X146980000Y-114362560D01*
X143020000Y-114362560D01*
X142784683Y-114406838D01*
X142568559Y-114545910D01*
X142423569Y-114758110D01*
X142372560Y-115010000D01*
X142372560Y-116115000D01*
X138136579Y-116115000D01*
X139366579Y-114885000D01*
X139999995Y-114885000D01*
X140000000Y-114885001D01*
X140282484Y-114828810D01*
X140338675Y-114817633D01*
X140625790Y-114625790D01*
X141165787Y-114085792D01*
X141165790Y-114085790D01*
X141357633Y-113798675D01*
X141425000Y-113460000D01*
X141425000Y-113285468D01*
X141840551Y-112870643D01*
X142074733Y-112306670D01*
X142075265Y-111696009D01*
X141842068Y-111131629D01*
X141595870Y-110885000D01*
X142356644Y-110885000D01*
X142333769Y-111000000D01*
X142457465Y-111621861D01*
X142809720Y-112149049D01*
X143336908Y-112501304D01*
X143958769Y-112625000D01*
X146041231Y-112625000D01*
X146663092Y-112501304D01*
X147190280Y-112149049D01*
X147542535Y-111621861D01*
X147666231Y-111000000D01*
X147542535Y-110378139D01*
X147190280Y-109850951D01*
X146979331Y-109710000D01*
X147530394Y-109710000D01*
X148290000Y-110469606D01*
X148290000Y-153530394D01*
X147530394Y-154290000D01*
X116469606Y-154290000D01*
X115710000Y-153530394D01*
X115710000Y-149958769D01*
X116375000Y-149958769D01*
X116375000Y-152041231D01*
X116498696Y-152663092D01*
X116850951Y-153190280D01*
X117378139Y-153542535D01*
X118000000Y-153666231D01*
X118621861Y-153542535D01*
X119149049Y-153190280D01*
X119501304Y-152663092D01*
X119625000Y-152041231D01*
X119625000Y-151285750D01*
X121375000Y-151285750D01*
X121375000Y-153106310D01*
X121471673Y-153339699D01*
X121650302Y-153518327D01*
X121883691Y-153615000D01*
X122714250Y-153615000D01*
X122873000Y-153456250D01*
X122873000Y-151127000D01*
X123127000Y-151127000D01*
X123127000Y-153456250D01*
X123285750Y-153615000D01*
X124116309Y-153615000D01*
X124349698Y-153518327D01*
X124528327Y-153339699D01*
X124625000Y-153106310D01*
X124625000Y-151285750D01*
X125465000Y-151285750D01*
X125465000Y-152026310D01*
X125561673Y-152259699D01*
X125740302Y-152438327D01*
X125973691Y-152535000D01*
X126714250Y-152535000D01*
X126873000Y-152376250D01*
X126873000Y-151127000D01*
X125623750Y-151127000D01*
X125465000Y-151285750D01*
X124625000Y-151285750D01*
X124466250Y-151127000D01*
X123127000Y-151127000D01*
X122873000Y-151127000D01*
X121533750Y-151127000D01*
X121375000Y-151285750D01*
X119625000Y-151285750D01*
X119625000Y-149958769D01*
X119501304Y-149336908D01*
X119205156Y-148893690D01*
X121375000Y-148893690D01*
X121375000Y-150714250D01*
X121533750Y-150873000D01*
X122873000Y-150873000D01*
X122873000Y-148543750D01*
X123127000Y-148543750D01*
X123127000Y-150873000D01*
X124466250Y-150873000D01*
X124625000Y-150714250D01*
X124625000Y-149973690D01*
X125465000Y-149973690D01*
X125465000Y-150714250D01*
X125623750Y-150873000D01*
X126873000Y-150873000D01*
X126873000Y-149623750D01*
X126714250Y-149465000D01*
X125973691Y-149465000D01*
X125740302Y-149561673D01*
X125561673Y-149740301D01*
X125465000Y-149973690D01*
X124625000Y-149973690D01*
X124625000Y-148893690D01*
X124528327Y-148660301D01*
X124349698Y-148481673D01*
X124116309Y-148385000D01*
X123285750Y-148385000D01*
X123127000Y-148543750D01*
X122873000Y-148543750D01*
X122714250Y-148385000D01*
X121883691Y-148385000D01*
X121650302Y-148481673D01*
X121471673Y-148660301D01*
X121375000Y-148893690D01*
X119205156Y-148893690D01*
X119149049Y-148809720D01*
X118885000Y-148633288D01*
X118885000Y-148329390D01*
X119085409Y-148195481D01*
X119418155Y-147697491D01*
X119535000Y-147110072D01*
X119535000Y-147049928D01*
X119418155Y-146462509D01*
X119114292Y-146007745D01*
X122671861Y-146007745D01*
X122745995Y-146253864D01*
X123283223Y-146446965D01*
X123853454Y-146419778D01*
X124254005Y-146253864D01*
X124328139Y-146007745D01*
X123500000Y-145179605D01*
X122671861Y-146007745D01*
X119114292Y-146007745D01*
X119085409Y-145964519D01*
X118587419Y-145631773D01*
X118000000Y-145514928D01*
X117412581Y-145631773D01*
X116914591Y-145964519D01*
X116581845Y-146462509D01*
X116465000Y-147049928D01*
X116465000Y-147110072D01*
X116581845Y-147697491D01*
X116914591Y-148195481D01*
X117115000Y-148329390D01*
X117115000Y-148633288D01*
X116850951Y-148809720D01*
X116498696Y-149336908D01*
X116375000Y-149958769D01*
X115710000Y-149958769D01*
X115710000Y-144783223D01*
X122053035Y-144783223D01*
X122080222Y-145353454D01*
X122246136Y-145754005D01*
X122492255Y-145828139D01*
X123320395Y-145000000D01*
X123679605Y-145000000D01*
X124507745Y-145828139D01*
X124555167Y-145813855D01*
X124596838Y-146035317D01*
X124735910Y-146251441D01*
X124948110Y-146396431D01*
X125200000Y-146447440D01*
X126800000Y-146447440D01*
X127035317Y-146403162D01*
X127251441Y-146264090D01*
X127396431Y-146051890D01*
X127430227Y-145885000D01*
X131615013Y-145885000D01*
X131614760Y-146174285D01*
X131825169Y-146683515D01*
X132214436Y-147073461D01*
X132723298Y-147284759D01*
X133274285Y-147285240D01*
X133783515Y-147074831D01*
X134173461Y-146685564D01*
X134384759Y-146176702D01*
X134385240Y-145625715D01*
X134174831Y-145116485D01*
X134154980Y-145096600D01*
X136480270Y-142771309D01*
X136549352Y-142874698D01*
X136931438Y-143130000D01*
X136549352Y-143385302D01*
X136238283Y-143850849D01*
X136129050Y-144400000D01*
X136238283Y-144949151D01*
X136549352Y-145414698D01*
X136931438Y-145670000D01*
X136549352Y-145925302D01*
X136238283Y-146390849D01*
X136129050Y-146940000D01*
X136238283Y-147489151D01*
X136549352Y-147954698D01*
X136931438Y-148210000D01*
X136549352Y-148465302D01*
X136238283Y-148930849D01*
X136201653Y-149115000D01*
X136000005Y-149115000D01*
X136000000Y-149114999D01*
X135661326Y-149182366D01*
X135661324Y-149182367D01*
X135661325Y-149182367D01*
X135374210Y-149374210D01*
X135374208Y-149374213D01*
X135083349Y-149665072D01*
X134735617Y-149664769D01*
X134244771Y-149867582D01*
X133868902Y-150242796D01*
X133734784Y-150565788D01*
X133719533Y-150489118D01*
X133430142Y-150056012D01*
X132997036Y-149766621D01*
X132486154Y-149665000D01*
X132433846Y-149665000D01*
X131922964Y-149766621D01*
X131489858Y-150056012D01*
X131450444Y-150115000D01*
X130825468Y-150115000D01*
X130410643Y-149699449D01*
X129846670Y-149465267D01*
X129236009Y-149464735D01*
X128671629Y-149697932D01*
X128494159Y-149875092D01*
X128438327Y-149740301D01*
X128259698Y-149561673D01*
X128026309Y-149465000D01*
X127285750Y-149465000D01*
X127127000Y-149623750D01*
X127127000Y-150873000D01*
X127147000Y-150873000D01*
X127147000Y-151127000D01*
X127127000Y-151127000D01*
X127127000Y-152376250D01*
X127285750Y-152535000D01*
X128026309Y-152535000D01*
X128259698Y-152438327D01*
X128438327Y-152259699D01*
X128494119Y-152125006D01*
X128669357Y-152300551D01*
X129233330Y-152534733D01*
X129843991Y-152535265D01*
X130408371Y-152302068D01*
X130826169Y-151885000D01*
X131450444Y-151885000D01*
X131489858Y-151943988D01*
X131922964Y-152233379D01*
X132433846Y-152335000D01*
X132486154Y-152335000D01*
X132997036Y-152233379D01*
X133430142Y-151943988D01*
X133719533Y-151510882D01*
X133734835Y-151433955D01*
X133867582Y-151755229D01*
X134242796Y-152131098D01*
X134733287Y-152334768D01*
X135264383Y-152335231D01*
X135755229Y-152132418D01*
X136131098Y-151757204D01*
X136227506Y-151525028D01*
X136129050Y-152020000D01*
X136238283Y-152569151D01*
X136549352Y-153034698D01*
X137014899Y-153345767D01*
X137564050Y-153455000D01*
X138435950Y-153455000D01*
X138985101Y-153345767D01*
X139450648Y-153034698D01*
X139761717Y-152569151D01*
X139870950Y-152020000D01*
X139761717Y-151470849D01*
X139450648Y-151005302D01*
X139068562Y-150750000D01*
X139450648Y-150494698D01*
X139761717Y-150029151D01*
X139870950Y-149480000D01*
X139761717Y-148930849D01*
X139450648Y-148465302D01*
X139068562Y-148210000D01*
X139450648Y-147954698D01*
X139761717Y-147489151D01*
X139870950Y-146940000D01*
X139761717Y-146390849D01*
X139450648Y-145925302D01*
X139068562Y-145670000D01*
X139450648Y-145414698D01*
X139761717Y-144949151D01*
X139870950Y-144400000D01*
X139761717Y-143850849D01*
X139450648Y-143385302D01*
X139068562Y-143130000D01*
X139450648Y-142874698D01*
X139761717Y-142409151D01*
X139870950Y-141860000D01*
X139761717Y-141310849D01*
X139450648Y-140845302D01*
X139068562Y-140590000D01*
X139450648Y-140334698D01*
X139761717Y-139869151D01*
X139870950Y-139320000D01*
X139761717Y-138770849D01*
X139450648Y-138305302D01*
X139072293Y-138052493D01*
X139504500Y-137704896D01*
X139774367Y-137211819D01*
X139791904Y-137129039D01*
X139669915Y-136907000D01*
X138127000Y-136907000D01*
X138127000Y-136927000D01*
X137873000Y-136927000D01*
X137873000Y-136907000D01*
X136330085Y-136907000D01*
X136208096Y-137129039D01*
X136225633Y-137211819D01*
X136495500Y-137704896D01*
X136927707Y-138052493D01*
X136549352Y-138305302D01*
X136238283Y-138770849D01*
X136169827Y-139115000D01*
X134000005Y-139115000D01*
X134000000Y-139114999D01*
X133661326Y-139182366D01*
X133661324Y-139182367D01*
X133661325Y-139182367D01*
X133374210Y-139374210D01*
X133374208Y-139374213D01*
X133133305Y-139615116D01*
X132866463Y-139614883D01*
X132625790Y-139374210D01*
X132338675Y-139182367D01*
X132282484Y-139171190D01*
X132000000Y-139114999D01*
X131999995Y-139115000D01*
X129431446Y-139115000D01*
X129403162Y-138964683D01*
X129264090Y-138748559D01*
X129051890Y-138603569D01*
X128800000Y-138552560D01*
X127200000Y-138552560D01*
X126964683Y-138596838D01*
X126748559Y-138735910D01*
X126603569Y-138948110D01*
X126555354Y-139186201D01*
X126507745Y-139171861D01*
X125679605Y-140000000D01*
X126507745Y-140828139D01*
X126555167Y-140813855D01*
X126596838Y-141035317D01*
X126735910Y-141251441D01*
X126948110Y-141396431D01*
X127200000Y-141447440D01*
X128800000Y-141447440D01*
X129035317Y-141403162D01*
X129251441Y-141264090D01*
X129396431Y-141051890D01*
X129430227Y-140885000D01*
X131615100Y-140885000D01*
X131614760Y-141274285D01*
X131825169Y-141783515D01*
X132214436Y-142173461D01*
X132723298Y-142384759D01*
X133274285Y-142385240D01*
X133783515Y-142174831D01*
X134173461Y-141785564D01*
X134384759Y-141276702D01*
X134385101Y-140885000D01*
X136522827Y-140885000D01*
X136462690Y-140975000D01*
X136140005Y-140975000D01*
X136140000Y-140974999D01*
X135801326Y-141042366D01*
X135715071Y-141100000D01*
X135514210Y-141234210D01*
X135514208Y-141234213D01*
X132515033Y-144233387D01*
X132438675Y-144182367D01*
X132382484Y-144171190D01*
X132100000Y-144114999D01*
X132099995Y-144115000D01*
X127431446Y-144115000D01*
X127403162Y-143964683D01*
X127264090Y-143748559D01*
X127051890Y-143603569D01*
X126800000Y-143552560D01*
X125200000Y-143552560D01*
X124964683Y-143596838D01*
X124748559Y-143735910D01*
X124603569Y-143948110D01*
X124555354Y-144186201D01*
X124507745Y-144171861D01*
X123679605Y-145000000D01*
X123320395Y-145000000D01*
X122492255Y-144171861D01*
X122246136Y-144245995D01*
X122053035Y-144783223D01*
X115710000Y-144783223D01*
X115710000Y-143992255D01*
X122671861Y-143992255D01*
X123500000Y-144820395D01*
X124328139Y-143992255D01*
X124254005Y-143746136D01*
X123716777Y-143553035D01*
X123146546Y-143580222D01*
X122745995Y-143746136D01*
X122671861Y-143992255D01*
X115710000Y-143992255D01*
X115710000Y-134000000D01*
X116352560Y-134000000D01*
X116352560Y-136000000D01*
X116396838Y-136235317D01*
X116535910Y-136451441D01*
X116748110Y-136596431D01*
X117000000Y-136647440D01*
X117115000Y-136647440D01*
X117115000Y-140452560D01*
X117100000Y-140452560D01*
X116864683Y-140496838D01*
X116648559Y-140635910D01*
X116503569Y-140848110D01*
X116452560Y-141100000D01*
X116452560Y-142900000D01*
X116496838Y-143135317D01*
X116635910Y-143351441D01*
X116848110Y-143496431D01*
X117100000Y-143547440D01*
X118900000Y-143547440D01*
X119135317Y-143503162D01*
X119351441Y-143364090D01*
X119496431Y-143151890D01*
X119547440Y-142900000D01*
X119547440Y-141100000D01*
X119530082Y-141007745D01*
X124671861Y-141007745D01*
X124745995Y-141253864D01*
X125283223Y-141446965D01*
X125853454Y-141419778D01*
X126254005Y-141253864D01*
X126328139Y-141007745D01*
X125500000Y-140179605D01*
X124671861Y-141007745D01*
X119530082Y-141007745D01*
X119503162Y-140864683D01*
X119364090Y-140648559D01*
X119151890Y-140503569D01*
X118900000Y-140452560D01*
X118885000Y-140452560D01*
X118885000Y-139783223D01*
X124053035Y-139783223D01*
X124080222Y-140353454D01*
X124246136Y-140754005D01*
X124492255Y-140828139D01*
X125320395Y-140000000D01*
X124492255Y-139171861D01*
X124246136Y-139245995D01*
X124053035Y-139783223D01*
X118885000Y-139783223D01*
X118885000Y-138992255D01*
X124671861Y-138992255D01*
X125500000Y-139820395D01*
X126328139Y-138992255D01*
X126254005Y-138746136D01*
X125716777Y-138553035D01*
X125146546Y-138580222D01*
X124745995Y-138746136D01*
X124671861Y-138992255D01*
X118885000Y-138992255D01*
X118885000Y-136652532D01*
X127027073Y-136652532D01*
X127125736Y-136919387D01*
X127735461Y-137145908D01*
X128385460Y-137121856D01*
X128874264Y-136919387D01*
X128972927Y-136652532D01*
X133527073Y-136652532D01*
X133625736Y-136919387D01*
X134235461Y-137145908D01*
X134885460Y-137121856D01*
X135374264Y-136919387D01*
X135472927Y-136652532D01*
X134500000Y-135679605D01*
X133527073Y-136652532D01*
X128972927Y-136652532D01*
X128000000Y-135679605D01*
X127027073Y-136652532D01*
X118885000Y-136652532D01*
X118885000Y-136647440D01*
X119000000Y-136647440D01*
X119235317Y-136603162D01*
X119451441Y-136464090D01*
X119596431Y-136251890D01*
X119616551Y-136152532D01*
X122027073Y-136152532D01*
X122125736Y-136419387D01*
X122735461Y-136645908D01*
X123385460Y-136621856D01*
X123874264Y-136419387D01*
X123972927Y-136152532D01*
X123000000Y-135179605D01*
X122027073Y-136152532D01*
X119616551Y-136152532D01*
X119647440Y-136000000D01*
X119647440Y-134735461D01*
X121354092Y-134735461D01*
X121378144Y-135385460D01*
X121580613Y-135874264D01*
X121847468Y-135972927D01*
X122820395Y-135000000D01*
X123179605Y-135000000D01*
X124152532Y-135972927D01*
X124419387Y-135874264D01*
X124645908Y-135264539D01*
X124644833Y-135235461D01*
X126354092Y-135235461D01*
X126378144Y-135885460D01*
X126580613Y-136374264D01*
X126847468Y-136472927D01*
X127820395Y-135500000D01*
X128179605Y-135500000D01*
X129152532Y-136472927D01*
X129419387Y-136374264D01*
X129645908Y-135764539D01*
X129626331Y-135235461D01*
X132854092Y-135235461D01*
X132878144Y-135885460D01*
X133080613Y-136374264D01*
X133347468Y-136472927D01*
X134320395Y-135500000D01*
X134679605Y-135500000D01*
X135652532Y-136472927D01*
X135919387Y-136374264D01*
X136145908Y-135764539D01*
X136121856Y-135114540D01*
X135919387Y-134625736D01*
X135652532Y-134527073D01*
X134679605Y-135500000D01*
X134320395Y-135500000D01*
X133347468Y-134527073D01*
X133080613Y-134625736D01*
X132854092Y-135235461D01*
X129626331Y-135235461D01*
X129621856Y-135114540D01*
X129419387Y-134625736D01*
X129152532Y-134527073D01*
X128179605Y-135500000D01*
X127820395Y-135500000D01*
X126847468Y-134527073D01*
X126580613Y-134625736D01*
X126354092Y-135235461D01*
X124644833Y-135235461D01*
X124621856Y-134614540D01*
X124419387Y-134125736D01*
X124152532Y-134027073D01*
X123179605Y-135000000D01*
X122820395Y-135000000D01*
X121847468Y-134027073D01*
X121580613Y-134125736D01*
X121354092Y-134735461D01*
X119647440Y-134735461D01*
X119647440Y-134000000D01*
X119618740Y-133847468D01*
X122027073Y-133847468D01*
X123000000Y-134820395D01*
X123972927Y-133847468D01*
X123874264Y-133580613D01*
X123264539Y-133354092D01*
X122614540Y-133378144D01*
X122125736Y-133580613D01*
X122027073Y-133847468D01*
X119618740Y-133847468D01*
X119603162Y-133764683D01*
X119464090Y-133548559D01*
X119251890Y-133403569D01*
X119000000Y-133352560D01*
X118885000Y-133352560D01*
X118885000Y-128857783D01*
X119091810Y-128816646D01*
X119627433Y-128458754D01*
X119744054Y-128284219D01*
X119922370Y-128511236D01*
X120485523Y-128827926D01*
X120617056Y-128859975D01*
X120873000Y-128740836D01*
X120873000Y-127127000D01*
X120853000Y-127127000D01*
X120853000Y-126873000D01*
X120873000Y-126873000D01*
X120873000Y-125259164D01*
X120617056Y-125140025D01*
X120485523Y-125172074D01*
X119922370Y-125488764D01*
X119744054Y-125715781D01*
X119627433Y-125541246D01*
X119091810Y-125183354D01*
X118460000Y-125057679D01*
X117828190Y-125183354D01*
X117292567Y-125541246D01*
X116934675Y-126076869D01*
X116809000Y-126708679D01*
X116809000Y-127291321D01*
X116934675Y-127923131D01*
X117115000Y-128193006D01*
X117115000Y-133352560D01*
X117000000Y-133352560D01*
X116764683Y-133396838D01*
X116548559Y-133535910D01*
X116403569Y-133748110D01*
X116352560Y-134000000D01*
X115710000Y-134000000D01*
X115710000Y-118152532D01*
X117027073Y-118152532D01*
X117125736Y-118419387D01*
X117735461Y-118645908D01*
X118385460Y-118621856D01*
X118874264Y-118419387D01*
X118972927Y-118152532D01*
X118000000Y-117179605D01*
X117027073Y-118152532D01*
X115710000Y-118152532D01*
X115710000Y-116735461D01*
X116354092Y-116735461D01*
X116378144Y-117385460D01*
X116580613Y-117874264D01*
X116847468Y-117972927D01*
X117820395Y-117000000D01*
X118179605Y-117000000D01*
X119152532Y-117972927D01*
X119419387Y-117874264D01*
X119645908Y-117264539D01*
X119621856Y-116614540D01*
X119419387Y-116125736D01*
X119152532Y-116027073D01*
X118179605Y-117000000D01*
X117820395Y-117000000D01*
X116847468Y-116027073D01*
X116580613Y-116125736D01*
X116354092Y-116735461D01*
X115710000Y-116735461D01*
X115710000Y-115847468D01*
X117027073Y-115847468D01*
X118000000Y-116820395D01*
X118972927Y-115847468D01*
X118874264Y-115580613D01*
X118264539Y-115354092D01*
X117614540Y-115378144D01*
X117125736Y-115580613D01*
X117027073Y-115847468D01*
X115710000Y-115847468D01*
X115710000Y-112127000D01*
X126809000Y-112127000D01*
X126809000Y-112381000D01*
X126983276Y-113003143D01*
X127382370Y-113511236D01*
X127945523Y-113827926D01*
X128077056Y-113859975D01*
X128333000Y-113740836D01*
X128333000Y-112127000D01*
X126809000Y-112127000D01*
X115710000Y-112127000D01*
X115710000Y-111619000D01*
X126809000Y-111619000D01*
X126809000Y-111873000D01*
X128333000Y-111873000D01*
X128333000Y-110259164D01*
X128077056Y-110140025D01*
X127945523Y-110172074D01*
X127382370Y-110488764D01*
X126983276Y-110996857D01*
X126809000Y-111619000D01*
X115710000Y-111619000D01*
X115710000Y-110469606D01*
X116469606Y-109710000D01*
X131038421Y-109710000D01*
X130613951Y-110134469D01*
X130613951Y-110134469D01*
G37*
X130613951Y-110134469D02*
X130368190Y-110183354D01*
X129832567Y-110541246D01*
X129715946Y-110715781D01*
X129537630Y-110488764D01*
X128974477Y-110172074D01*
X128842944Y-110140025D01*
X128587000Y-110259164D01*
X128587000Y-111873000D01*
X128607000Y-111873000D01*
X128607000Y-112127000D01*
X128587000Y-112127000D01*
X128587000Y-113740836D01*
X128842944Y-113859975D01*
X128974477Y-113827926D01*
X129537630Y-113511236D01*
X129715946Y-113284219D01*
X129832567Y-113458754D01*
X130368190Y-113816646D01*
X131000000Y-113942321D01*
X131631810Y-113816646D01*
X132167433Y-113458754D01*
X132270000Y-113305252D01*
X132372567Y-113458754D01*
X132908190Y-113816646D01*
X133540000Y-113942321D01*
X134171810Y-113816646D01*
X134707433Y-113458754D01*
X135065325Y-112923131D01*
X135191000Y-112291321D01*
X135191000Y-112285750D01*
X136465000Y-112285750D01*
X136465000Y-113026310D01*
X136561673Y-113259699D01*
X136740302Y-113438327D01*
X136973691Y-113535000D01*
X137714250Y-113535000D01*
X137873000Y-113376250D01*
X137873000Y-112127000D01*
X136623750Y-112127000D01*
X136465000Y-112285750D01*
X135191000Y-112285750D01*
X135191000Y-111708679D01*
X135065325Y-111076869D01*
X134937122Y-110885000D01*
X136501737Y-110885000D01*
X136465000Y-110973690D01*
X136465000Y-111714250D01*
X136623750Y-111873000D01*
X137873000Y-111873000D01*
X137873000Y-111853000D01*
X138127000Y-111853000D01*
X138127000Y-111873000D01*
X138147000Y-111873000D01*
X138147000Y-112127000D01*
X138127000Y-112127000D01*
X138127000Y-113376250D01*
X138249585Y-113498835D01*
X133533105Y-118215316D01*
X133510882Y-118200467D01*
X133000000Y-118098846D01*
X132489118Y-118200467D01*
X132056012Y-118489858D01*
X131766621Y-118922964D01*
X131665000Y-119433846D01*
X131665000Y-119486154D01*
X131766621Y-119997036D01*
X132056012Y-120430142D01*
X132489118Y-120719533D01*
X132566045Y-120734835D01*
X132244771Y-120867582D01*
X131996921Y-121115000D01*
X130431446Y-121115000D01*
X130403162Y-120964683D01*
X130264090Y-120748559D01*
X130051890Y-120603569D01*
X129813799Y-120555354D01*
X129828139Y-120507745D01*
X129000000Y-119679605D01*
X128171861Y-120507745D01*
X128186145Y-120555167D01*
X127964683Y-120596838D01*
X127748559Y-120735910D01*
X127603569Y-120948110D01*
X127552560Y-121200000D01*
X127552560Y-122800000D01*
X127596838Y-123035317D01*
X127735910Y-123251441D01*
X127948110Y-123396431D01*
X128115000Y-123430227D01*
X128115000Y-123997127D01*
X127868902Y-124242796D01*
X127665232Y-124733287D01*
X127664769Y-125264383D01*
X127867582Y-125755229D01*
X127930332Y-125818089D01*
X127633420Y-126115000D01*
X125072910Y-126115000D01*
X125065325Y-126076869D01*
X124707433Y-125541246D01*
X124425000Y-125352530D01*
X124425000Y-119283223D01*
X127553035Y-119283223D01*
X127580222Y-119853454D01*
X127746136Y-120254005D01*
X127992255Y-120328139D01*
X128820395Y-119500000D01*
X129179605Y-119500000D01*
X130007745Y-120328139D01*
X130253864Y-120254005D01*
X130446965Y-119716777D01*
X130419778Y-119146546D01*
X130253864Y-118745995D01*
X130007745Y-118671861D01*
X129179605Y-119500000D01*
X128820395Y-119500000D01*
X127992255Y-118671861D01*
X127746136Y-118745995D01*
X127553035Y-119283223D01*
X124425000Y-119283223D01*
X124425000Y-118492255D01*
X128171861Y-118492255D01*
X129000000Y-119320395D01*
X129828139Y-118492255D01*
X129754005Y-118246136D01*
X129216777Y-118053035D01*
X128646546Y-118080222D01*
X128245995Y-118246136D01*
X128171861Y-118492255D01*
X124425000Y-118492255D01*
X124425000Y-118481104D01*
X124451441Y-118464090D01*
X124596431Y-118251890D01*
X124647440Y-118000000D01*
X124647440Y-116000000D01*
X124603162Y-115764683D01*
X124464090Y-115548559D01*
X124251890Y-115403569D01*
X124000000Y-115352560D01*
X122000000Y-115352560D01*
X121764683Y-115396838D01*
X121548559Y-115535910D01*
X121403569Y-115748110D01*
X121352560Y-116000000D01*
X121352560Y-118000000D01*
X121396838Y-118235317D01*
X121535910Y-118451441D01*
X121748110Y-118596431D01*
X122000000Y-118647440D01*
X122655000Y-118647440D01*
X122655000Y-125352530D01*
X122372567Y-125541246D01*
X122255946Y-125715781D01*
X122077630Y-125488764D01*
X121514477Y-125172074D01*
X121382944Y-125140025D01*
X121127000Y-125259164D01*
X121127000Y-126873000D01*
X121147000Y-126873000D01*
X121147000Y-127127000D01*
X121127000Y-127127000D01*
X121127000Y-128740836D01*
X121382944Y-128859975D01*
X121514477Y-128827926D01*
X122077630Y-128511236D01*
X122255946Y-128284219D01*
X122372567Y-128458754D01*
X122655000Y-128647470D01*
X122655000Y-129539995D01*
X122654999Y-129540000D01*
X122688646Y-129709151D01*
X122722367Y-129878675D01*
X122884500Y-130121325D01*
X122914210Y-130165790D01*
X126374208Y-133625787D01*
X126374210Y-133625790D01*
X126661325Y-133817633D01*
X126717516Y-133828810D01*
X127000000Y-133885001D01*
X127000005Y-133885000D01*
X127597988Y-133885000D01*
X127125736Y-134080613D01*
X127027073Y-134347468D01*
X128000000Y-135320395D01*
X128972927Y-134347468D01*
X128874264Y-134080613D01*
X128347734Y-133885000D01*
X134097988Y-133885000D01*
X133625736Y-134080613D01*
X133527073Y-134347468D01*
X134500000Y-135320395D01*
X135472927Y-134347468D01*
X135374264Y-134080613D01*
X134847734Y-133885000D01*
X136199664Y-133885000D01*
X136129050Y-134240000D01*
X136238283Y-134789151D01*
X136549352Y-135254698D01*
X136927707Y-135507507D01*
X136495500Y-135855104D01*
X136225633Y-136348181D01*
X136208096Y-136430961D01*
X136330085Y-136653000D01*
X137873000Y-136653000D01*
X137873000Y-136633000D01*
X138127000Y-136633000D01*
X138127000Y-136653000D01*
X139669915Y-136653000D01*
X139791904Y-136430961D01*
X139774367Y-136348181D01*
X139504500Y-135855104D01*
X139072293Y-135507507D01*
X139450648Y-135254698D01*
X139537310Y-135125000D01*
X139873420Y-135125000D01*
X142154208Y-137405787D01*
X142154210Y-137405790D01*
X142441325Y-137597633D01*
X142780000Y-137665000D01*
X144082690Y-137665000D01*
X144169352Y-137794698D01*
X144551438Y-138050000D01*
X144169352Y-138305302D01*
X143858283Y-138770849D01*
X143749050Y-139320000D01*
X143858283Y-139869151D01*
X144169352Y-140334698D01*
X144551438Y-140590000D01*
X144169352Y-140845302D01*
X143858283Y-141310849D01*
X143749050Y-141860000D01*
X143858283Y-142409151D01*
X144169352Y-142874698D01*
X144551438Y-143130000D01*
X144169352Y-143385302D01*
X143858283Y-143850849D01*
X143749050Y-144400000D01*
X143858283Y-144949151D01*
X144169352Y-145414698D01*
X144551438Y-145670000D01*
X144169352Y-145925302D01*
X143858283Y-146390849D01*
X143749050Y-146940000D01*
X143858283Y-147489151D01*
X144169352Y-147954698D01*
X144551438Y-148210000D01*
X144169352Y-148465302D01*
X143858283Y-148930849D01*
X143749050Y-149480000D01*
X143858283Y-150029151D01*
X144169352Y-150494698D01*
X144551438Y-150750000D01*
X144169352Y-151005302D01*
X143858283Y-151470849D01*
X143749050Y-152020000D01*
X143858283Y-152569151D01*
X144169352Y-153034698D01*
X144634899Y-153345767D01*
X145184050Y-153455000D01*
X146055950Y-153455000D01*
X146605101Y-153345767D01*
X147070648Y-153034698D01*
X147381717Y-152569151D01*
X147490950Y-152020000D01*
X147381717Y-151470849D01*
X147070648Y-151005302D01*
X146688562Y-150750000D01*
X147070648Y-150494698D01*
X147381717Y-150029151D01*
X147490950Y-149480000D01*
X147381717Y-148930849D01*
X147070648Y-148465302D01*
X146688562Y-148210000D01*
X147070648Y-147954698D01*
X147381717Y-147489151D01*
X147490950Y-146940000D01*
X147381717Y-146390849D01*
X147070648Y-145925302D01*
X146688562Y-145670000D01*
X147070648Y-145414698D01*
X147381717Y-144949151D01*
X147490950Y-144400000D01*
X147381717Y-143850849D01*
X147070648Y-143385302D01*
X146688562Y-143130000D01*
X147070648Y-142874698D01*
X147381717Y-142409151D01*
X147490950Y-141860000D01*
X147381717Y-141310849D01*
X147070648Y-140845302D01*
X146688562Y-140590000D01*
X147070648Y-140334698D01*
X147381717Y-139869151D01*
X147490950Y-139320000D01*
X147381717Y-138770849D01*
X147070648Y-138305302D01*
X146688562Y-138050000D01*
X147070648Y-137794698D01*
X147381717Y-137329151D01*
X147490950Y-136780000D01*
X147381717Y-136230849D01*
X147070648Y-135765302D01*
X146692293Y-135512493D01*
X147124500Y-135164896D01*
X147394367Y-134671819D01*
X147411904Y-134589039D01*
X147289915Y-134367000D01*
X145747000Y-134367000D01*
X145747000Y-134387000D01*
X145493000Y-134387000D01*
X145493000Y-134367000D01*
X143950085Y-134367000D01*
X143828096Y-134589039D01*
X143845633Y-134671819D01*
X144115500Y-135164896D01*
X144547707Y-135512493D01*
X144169352Y-135765302D01*
X144082690Y-135895000D01*
X143146579Y-135895000D01*
X140865790Y-133614210D01*
X140815508Y-133580613D01*
X140578675Y-133422367D01*
X140484172Y-133403569D01*
X140240000Y-133354999D01*
X140239995Y-133355000D01*
X139537310Y-133355000D01*
X139450648Y-133225302D01*
X139068562Y-132970000D01*
X139450648Y-132714698D01*
X139761717Y-132249151D01*
X139870950Y-131700000D01*
X139761717Y-131150849D01*
X139450648Y-130685302D01*
X139068562Y-130430000D01*
X139450648Y-130174698D01*
X139761717Y-129709151D01*
X139870950Y-129160000D01*
X139761717Y-128610849D01*
X139450648Y-128145302D01*
X139068562Y-127890000D01*
X139450648Y-127634698D01*
X139761717Y-127169151D01*
X139870950Y-126620000D01*
X139761717Y-126070849D01*
X139450648Y-125605302D01*
X139068562Y-125350000D01*
X139450648Y-125094698D01*
X139761717Y-124629151D01*
X139870950Y-124080000D01*
X139761717Y-123530849D01*
X139450648Y-123065302D01*
X139068562Y-122810000D01*
X139450648Y-122554698D01*
X139761717Y-122089151D01*
X139870950Y-121540000D01*
X139761717Y-120990849D01*
X139450648Y-120525302D01*
X139304650Y-120427749D01*
X139435317Y-120403162D01*
X139651441Y-120264090D01*
X139796431Y-120051890D01*
X139847440Y-119800000D01*
X139847440Y-118200000D01*
X139803162Y-117964683D01*
X139751887Y-117885000D01*
X143999995Y-117885000D01*
X144000000Y-117885001D01*
X144282484Y-117828810D01*
X144338675Y-117817633D01*
X144608354Y-117637440D01*
X144819870Y-117637440D01*
X144634899Y-117674233D01*
X144169352Y-117985302D01*
X143858283Y-118450849D01*
X143749050Y-119000000D01*
X143858283Y-119549151D01*
X144169352Y-120014698D01*
X144551438Y-120270000D01*
X144169352Y-120525302D01*
X143858283Y-120990849D01*
X143749050Y-121540000D01*
X143858283Y-122089151D01*
X144169352Y-122554698D01*
X144551438Y-122810000D01*
X144169352Y-123065302D01*
X143858283Y-123530849D01*
X143749050Y-124080000D01*
X143858283Y-124629151D01*
X144169352Y-125094698D01*
X144551438Y-125350000D01*
X144169352Y-125605302D01*
X143858283Y-126070849D01*
X143749050Y-126620000D01*
X143858283Y-127169151D01*
X144169352Y-127634698D01*
X144551438Y-127890000D01*
X144169352Y-128145302D01*
X143858283Y-128610849D01*
X143749050Y-129160000D01*
X143858283Y-129709151D01*
X144169352Y-130174698D01*
X144551438Y-130430000D01*
X144169352Y-130685302D01*
X143858283Y-131150849D01*
X143749050Y-131700000D01*
X143858283Y-132249151D01*
X144169352Y-132714698D01*
X144547707Y-132967507D01*
X144115500Y-133315104D01*
X143845633Y-133808181D01*
X143828096Y-133890961D01*
X143950085Y-134113000D01*
X145493000Y-134113000D01*
X145493000Y-134093000D01*
X145747000Y-134093000D01*
X145747000Y-134113000D01*
X147289915Y-134113000D01*
X147411904Y-133890961D01*
X147394367Y-133808181D01*
X147124500Y-133315104D01*
X146692293Y-132967507D01*
X147070648Y-132714698D01*
X147381717Y-132249151D01*
X147490950Y-131700000D01*
X147381717Y-131150849D01*
X147070648Y-130685302D01*
X146688562Y-130430000D01*
X147070648Y-130174698D01*
X147381717Y-129709151D01*
X147490950Y-129160000D01*
X147381717Y-128610849D01*
X147070648Y-128145302D01*
X146688562Y-127890000D01*
X147070648Y-127634698D01*
X147381717Y-127169151D01*
X147490950Y-126620000D01*
X147381717Y-126070849D01*
X147070648Y-125605302D01*
X146688562Y-125350000D01*
X147070648Y-125094698D01*
X147381717Y-124629151D01*
X147490950Y-124080000D01*
X147381717Y-123530849D01*
X147070648Y-123065302D01*
X146688562Y-122810000D01*
X147070648Y-122554698D01*
X147381717Y-122089151D01*
X147490950Y-121540000D01*
X147381717Y-120990849D01*
X147070648Y-120525302D01*
X146688562Y-120270000D01*
X147070648Y-120014698D01*
X147381717Y-119549151D01*
X147490950Y-119000000D01*
X147381717Y-118450849D01*
X147070648Y-117985302D01*
X146605101Y-117674233D01*
X146420130Y-117637440D01*
X146980000Y-117637440D01*
X147215317Y-117593162D01*
X147431441Y-117454090D01*
X147576431Y-117241890D01*
X147627440Y-116990000D01*
X147627440Y-115010000D01*
X147583162Y-114774683D01*
X147444090Y-114558559D01*
X147231890Y-114413569D01*
X146980000Y-114362560D01*
X143020000Y-114362560D01*
X142784683Y-114406838D01*
X142568559Y-114545910D01*
X142423569Y-114758110D01*
X142372560Y-115010000D01*
X142372560Y-116115000D01*
X138136579Y-116115000D01*
X139366579Y-114885000D01*
X139999995Y-114885000D01*
X140000000Y-114885001D01*
X140282484Y-114828810D01*
X140338675Y-114817633D01*
X140625790Y-114625790D01*
X141165787Y-114085792D01*
X141165790Y-114085790D01*
X141357633Y-113798675D01*
X141425000Y-113460000D01*
X141425000Y-113285468D01*
X141840551Y-112870643D01*
X142074733Y-112306670D01*
X142075265Y-111696009D01*
X141842068Y-111131629D01*
X141595870Y-110885000D01*
X142356644Y-110885000D01*
X142333769Y-111000000D01*
X142457465Y-111621861D01*
X142809720Y-112149049D01*
X143336908Y-112501304D01*
X143958769Y-112625000D01*
X146041231Y-112625000D01*
X146663092Y-112501304D01*
X147190280Y-112149049D01*
X147542535Y-111621861D01*
X147666231Y-111000000D01*
X147542535Y-110378139D01*
X147190280Y-109850951D01*
X146979331Y-109710000D01*
X147530394Y-109710000D01*
X148290000Y-110469606D01*
X148290000Y-153530394D01*
X147530394Y-154290000D01*
X116469606Y-154290000D01*
X115710000Y-153530394D01*
X115710000Y-149958769D01*
X116375000Y-149958769D01*
X116375000Y-152041231D01*
X116498696Y-152663092D01*
X116850951Y-153190280D01*
X117378139Y-153542535D01*
X118000000Y-153666231D01*
X118621861Y-153542535D01*
X119149049Y-153190280D01*
X119501304Y-152663092D01*
X119625000Y-152041231D01*
X119625000Y-151285750D01*
X121375000Y-151285750D01*
X121375000Y-153106310D01*
X121471673Y-153339699D01*
X121650302Y-153518327D01*
X121883691Y-153615000D01*
X122714250Y-153615000D01*
X122873000Y-153456250D01*
X122873000Y-151127000D01*
X123127000Y-151127000D01*
X123127000Y-153456250D01*
X123285750Y-153615000D01*
X124116309Y-153615000D01*
X124349698Y-153518327D01*
X124528327Y-153339699D01*
X124625000Y-153106310D01*
X124625000Y-151285750D01*
X125465000Y-151285750D01*
X125465000Y-152026310D01*
X125561673Y-152259699D01*
X125740302Y-152438327D01*
X125973691Y-152535000D01*
X126714250Y-152535000D01*
X126873000Y-152376250D01*
X126873000Y-151127000D01*
X125623750Y-151127000D01*
X125465000Y-151285750D01*
X124625000Y-151285750D01*
X124466250Y-151127000D01*
X123127000Y-151127000D01*
X122873000Y-151127000D01*
X121533750Y-151127000D01*
X121375000Y-151285750D01*
X119625000Y-151285750D01*
X119625000Y-149958769D01*
X119501304Y-149336908D01*
X119205156Y-148893690D01*
X121375000Y-148893690D01*
X121375000Y-150714250D01*
X121533750Y-150873000D01*
X122873000Y-150873000D01*
X122873000Y-148543750D01*
X123127000Y-148543750D01*
X123127000Y-150873000D01*
X124466250Y-150873000D01*
X124625000Y-150714250D01*
X124625000Y-149973690D01*
X125465000Y-149973690D01*
X125465000Y-150714250D01*
X125623750Y-150873000D01*
X126873000Y-150873000D01*
X126873000Y-149623750D01*
X126714250Y-149465000D01*
X125973691Y-149465000D01*
X125740302Y-149561673D01*
X125561673Y-149740301D01*
X125465000Y-149973690D01*
X124625000Y-149973690D01*
X124625000Y-148893690D01*
X124528327Y-148660301D01*
X124349698Y-148481673D01*
X124116309Y-148385000D01*
X123285750Y-148385000D01*
X123127000Y-148543750D01*
X122873000Y-148543750D01*
X122714250Y-148385000D01*
X121883691Y-148385000D01*
X121650302Y-148481673D01*
X121471673Y-148660301D01*
X121375000Y-148893690D01*
X119205156Y-148893690D01*
X119149049Y-148809720D01*
X118885000Y-148633288D01*
X118885000Y-148329390D01*
X119085409Y-148195481D01*
X119418155Y-147697491D01*
X119535000Y-147110072D01*
X119535000Y-147049928D01*
X119418155Y-146462509D01*
X119114292Y-146007745D01*
X122671861Y-146007745D01*
X122745995Y-146253864D01*
X123283223Y-146446965D01*
X123853454Y-146419778D01*
X124254005Y-146253864D01*
X124328139Y-146007745D01*
X123500000Y-145179605D01*
X122671861Y-146007745D01*
X119114292Y-146007745D01*
X119085409Y-145964519D01*
X118587419Y-145631773D01*
X118000000Y-145514928D01*
X117412581Y-145631773D01*
X116914591Y-145964519D01*
X116581845Y-146462509D01*
X116465000Y-147049928D01*
X116465000Y-147110072D01*
X116581845Y-147697491D01*
X116914591Y-148195481D01*
X117115000Y-148329390D01*
X117115000Y-148633288D01*
X116850951Y-148809720D01*
X116498696Y-149336908D01*
X116375000Y-149958769D01*
X115710000Y-149958769D01*
X115710000Y-144783223D01*
X122053035Y-144783223D01*
X122080222Y-145353454D01*
X122246136Y-145754005D01*
X122492255Y-145828139D01*
X123320395Y-145000000D01*
X123679605Y-145000000D01*
X124507745Y-145828139D01*
X124555167Y-145813855D01*
X124596838Y-146035317D01*
X124735910Y-146251441D01*
X124948110Y-146396431D01*
X125200000Y-146447440D01*
X126800000Y-146447440D01*
X127035317Y-146403162D01*
X127251441Y-146264090D01*
X127396431Y-146051890D01*
X127430227Y-145885000D01*
X131615013Y-145885000D01*
X131614760Y-146174285D01*
X131825169Y-146683515D01*
X132214436Y-147073461D01*
X132723298Y-147284759D01*
X133274285Y-147285240D01*
X133783515Y-147074831D01*
X134173461Y-146685564D01*
X134384759Y-146176702D01*
X134385240Y-145625715D01*
X134174831Y-145116485D01*
X134154980Y-145096600D01*
X136480270Y-142771309D01*
X136549352Y-142874698D01*
X136931438Y-143130000D01*
X136549352Y-143385302D01*
X136238283Y-143850849D01*
X136129050Y-144400000D01*
X136238283Y-144949151D01*
X136549352Y-145414698D01*
X136931438Y-145670000D01*
X136549352Y-145925302D01*
X136238283Y-146390849D01*
X136129050Y-146940000D01*
X136238283Y-147489151D01*
X136549352Y-147954698D01*
X136931438Y-148210000D01*
X136549352Y-148465302D01*
X136238283Y-148930849D01*
X136201653Y-149115000D01*
X136000005Y-149115000D01*
X136000000Y-149114999D01*
X135661326Y-149182366D01*
X135661324Y-149182367D01*
X135661325Y-149182367D01*
X135374210Y-149374210D01*
X135374208Y-149374213D01*
X135083349Y-149665072D01*
X134735617Y-149664769D01*
X134244771Y-149867582D01*
X133868902Y-150242796D01*
X133734784Y-150565788D01*
X133719533Y-150489118D01*
X133430142Y-150056012D01*
X132997036Y-149766621D01*
X132486154Y-149665000D01*
X132433846Y-149665000D01*
X131922964Y-149766621D01*
X131489858Y-150056012D01*
X131450444Y-150115000D01*
X130825468Y-150115000D01*
X130410643Y-149699449D01*
X129846670Y-149465267D01*
X129236009Y-149464735D01*
X128671629Y-149697932D01*
X128494159Y-149875092D01*
X128438327Y-149740301D01*
X128259698Y-149561673D01*
X128026309Y-149465000D01*
X127285750Y-149465000D01*
X127127000Y-149623750D01*
X127127000Y-150873000D01*
X127147000Y-150873000D01*
X127147000Y-151127000D01*
X127127000Y-151127000D01*
X127127000Y-152376250D01*
X127285750Y-152535000D01*
X128026309Y-152535000D01*
X128259698Y-152438327D01*
X128438327Y-152259699D01*
X128494119Y-152125006D01*
X128669357Y-152300551D01*
X129233330Y-152534733D01*
X129843991Y-152535265D01*
X130408371Y-152302068D01*
X130826169Y-151885000D01*
X131450444Y-151885000D01*
X131489858Y-151943988D01*
X131922964Y-152233379D01*
X132433846Y-152335000D01*
X132486154Y-152335000D01*
X132997036Y-152233379D01*
X133430142Y-151943988D01*
X133719533Y-151510882D01*
X133734835Y-151433955D01*
X133867582Y-151755229D01*
X134242796Y-152131098D01*
X134733287Y-152334768D01*
X135264383Y-152335231D01*
X135755229Y-152132418D01*
X136131098Y-151757204D01*
X136227506Y-151525028D01*
X136129050Y-152020000D01*
X136238283Y-152569151D01*
X136549352Y-153034698D01*
X137014899Y-153345767D01*
X137564050Y-153455000D01*
X138435950Y-153455000D01*
X138985101Y-153345767D01*
X139450648Y-153034698D01*
X139761717Y-152569151D01*
X139870950Y-152020000D01*
X139761717Y-151470849D01*
X139450648Y-151005302D01*
X139068562Y-150750000D01*
X139450648Y-150494698D01*
X139761717Y-150029151D01*
X139870950Y-149480000D01*
X139761717Y-148930849D01*
X139450648Y-148465302D01*
X139068562Y-148210000D01*
X139450648Y-147954698D01*
X139761717Y-147489151D01*
X139870950Y-146940000D01*
X139761717Y-146390849D01*
X139450648Y-145925302D01*
X139068562Y-145670000D01*
X139450648Y-145414698D01*
X139761717Y-144949151D01*
X139870950Y-144400000D01*
X139761717Y-143850849D01*
X139450648Y-143385302D01*
X139068562Y-143130000D01*
X139450648Y-142874698D01*
X139761717Y-142409151D01*
X139870950Y-141860000D01*
X139761717Y-141310849D01*
X139450648Y-140845302D01*
X139068562Y-140590000D01*
X139450648Y-140334698D01*
X139761717Y-139869151D01*
X139870950Y-139320000D01*
X139761717Y-138770849D01*
X139450648Y-138305302D01*
X139072293Y-138052493D01*
X139504500Y-137704896D01*
X139774367Y-137211819D01*
X139791904Y-137129039D01*
X139669915Y-136907000D01*
X138127000Y-136907000D01*
X138127000Y-136927000D01*
X137873000Y-136927000D01*
X137873000Y-136907000D01*
X136330085Y-136907000D01*
X136208096Y-137129039D01*
X136225633Y-137211819D01*
X136495500Y-137704896D01*
X136927707Y-138052493D01*
X136549352Y-138305302D01*
X136238283Y-138770849D01*
X136169827Y-139115000D01*
X134000005Y-139115000D01*
X134000000Y-139114999D01*
X133661326Y-139182366D01*
X133661324Y-139182367D01*
X133661325Y-139182367D01*
X133374210Y-139374210D01*
X133374208Y-139374213D01*
X133133305Y-139615116D01*
X132866463Y-139614883D01*
X132625790Y-139374210D01*
X132338675Y-139182367D01*
X132282484Y-139171190D01*
X132000000Y-139114999D01*
X131999995Y-139115000D01*
X129431446Y-139115000D01*
X129403162Y-138964683D01*
X129264090Y-138748559D01*
X129051890Y-138603569D01*
X128800000Y-138552560D01*
X127200000Y-138552560D01*
X126964683Y-138596838D01*
X126748559Y-138735910D01*
X126603569Y-138948110D01*
X126555354Y-139186201D01*
X126507745Y-139171861D01*
X125679605Y-140000000D01*
X126507745Y-140828139D01*
X126555167Y-140813855D01*
X126596838Y-141035317D01*
X126735910Y-141251441D01*
X126948110Y-141396431D01*
X127200000Y-141447440D01*
X128800000Y-141447440D01*
X129035317Y-141403162D01*
X129251441Y-141264090D01*
X129396431Y-141051890D01*
X129430227Y-140885000D01*
X131615100Y-140885000D01*
X131614760Y-141274285D01*
X131825169Y-141783515D01*
X132214436Y-142173461D01*
X132723298Y-142384759D01*
X133274285Y-142385240D01*
X133783515Y-142174831D01*
X134173461Y-141785564D01*
X134384759Y-141276702D01*
X134385101Y-140885000D01*
X136522827Y-140885000D01*
X136462690Y-140975000D01*
X136140005Y-140975000D01*
X136140000Y-140974999D01*
X135801326Y-141042366D01*
X135715071Y-141100000D01*
X135514210Y-141234210D01*
X135514208Y-141234213D01*
X132515033Y-144233387D01*
X132438675Y-144182367D01*
X132382484Y-144171190D01*
X132100000Y-144114999D01*
X132099995Y-144115000D01*
X127431446Y-144115000D01*
X127403162Y-143964683D01*
X127264090Y-143748559D01*
X127051890Y-143603569D01*
X126800000Y-143552560D01*
X125200000Y-143552560D01*
X124964683Y-143596838D01*
X124748559Y-143735910D01*
X124603569Y-143948110D01*
X124555354Y-144186201D01*
X124507745Y-144171861D01*
X123679605Y-145000000D01*
X123320395Y-145000000D01*
X122492255Y-144171861D01*
X122246136Y-144245995D01*
X122053035Y-144783223D01*
X115710000Y-144783223D01*
X115710000Y-143992255D01*
X122671861Y-143992255D01*
X123500000Y-144820395D01*
X124328139Y-143992255D01*
X124254005Y-143746136D01*
X123716777Y-143553035D01*
X123146546Y-143580222D01*
X122745995Y-143746136D01*
X122671861Y-143992255D01*
X115710000Y-143992255D01*
X115710000Y-134000000D01*
X116352560Y-134000000D01*
X116352560Y-136000000D01*
X116396838Y-136235317D01*
X116535910Y-136451441D01*
X116748110Y-136596431D01*
X117000000Y-136647440D01*
X117115000Y-136647440D01*
X117115000Y-140452560D01*
X117100000Y-140452560D01*
X116864683Y-140496838D01*
X116648559Y-140635910D01*
X116503569Y-140848110D01*
X116452560Y-141100000D01*
X116452560Y-142900000D01*
X116496838Y-143135317D01*
X116635910Y-143351441D01*
X116848110Y-143496431D01*
X117100000Y-143547440D01*
X118900000Y-143547440D01*
X119135317Y-143503162D01*
X119351441Y-143364090D01*
X119496431Y-143151890D01*
X119547440Y-142900000D01*
X119547440Y-141100000D01*
X119530082Y-141007745D01*
X124671861Y-141007745D01*
X124745995Y-141253864D01*
X125283223Y-141446965D01*
X125853454Y-141419778D01*
X126254005Y-141253864D01*
X126328139Y-141007745D01*
X125500000Y-140179605D01*
X124671861Y-141007745D01*
X119530082Y-141007745D01*
X119503162Y-140864683D01*
X119364090Y-140648559D01*
X119151890Y-140503569D01*
X118900000Y-140452560D01*
X118885000Y-140452560D01*
X118885000Y-139783223D01*
X124053035Y-139783223D01*
X124080222Y-140353454D01*
X124246136Y-140754005D01*
X124492255Y-140828139D01*
X125320395Y-140000000D01*
X124492255Y-139171861D01*
X124246136Y-139245995D01*
X124053035Y-139783223D01*
X118885000Y-139783223D01*
X118885000Y-138992255D01*
X124671861Y-138992255D01*
X125500000Y-139820395D01*
X126328139Y-138992255D01*
X126254005Y-138746136D01*
X125716777Y-138553035D01*
X125146546Y-138580222D01*
X124745995Y-138746136D01*
X124671861Y-138992255D01*
X118885000Y-138992255D01*
X118885000Y-136652532D01*
X127027073Y-136652532D01*
X127125736Y-136919387D01*
X127735461Y-137145908D01*
X128385460Y-137121856D01*
X128874264Y-136919387D01*
X128972927Y-136652532D01*
X133527073Y-136652532D01*
X133625736Y-136919387D01*
X134235461Y-137145908D01*
X134885460Y-137121856D01*
X135374264Y-136919387D01*
X135472927Y-136652532D01*
X134500000Y-135679605D01*
X133527073Y-136652532D01*
X128972927Y-136652532D01*
X128000000Y-135679605D01*
X127027073Y-136652532D01*
X118885000Y-136652532D01*
X118885000Y-136647440D01*
X119000000Y-136647440D01*
X119235317Y-136603162D01*
X119451441Y-136464090D01*
X119596431Y-136251890D01*
X119616551Y-136152532D01*
X122027073Y-136152532D01*
X122125736Y-136419387D01*
X122735461Y-136645908D01*
X123385460Y-136621856D01*
X123874264Y-136419387D01*
X123972927Y-136152532D01*
X123000000Y-135179605D01*
X122027073Y-136152532D01*
X119616551Y-136152532D01*
X119647440Y-136000000D01*
X119647440Y-134735461D01*
X121354092Y-134735461D01*
X121378144Y-135385460D01*
X121580613Y-135874264D01*
X121847468Y-135972927D01*
X122820395Y-135000000D01*
X123179605Y-135000000D01*
X124152532Y-135972927D01*
X124419387Y-135874264D01*
X124645908Y-135264539D01*
X124644833Y-135235461D01*
X126354092Y-135235461D01*
X126378144Y-135885460D01*
X126580613Y-136374264D01*
X126847468Y-136472927D01*
X127820395Y-135500000D01*
X128179605Y-135500000D01*
X129152532Y-136472927D01*
X129419387Y-136374264D01*
X129645908Y-135764539D01*
X129626331Y-135235461D01*
X132854092Y-135235461D01*
X132878144Y-135885460D01*
X133080613Y-136374264D01*
X133347468Y-136472927D01*
X134320395Y-135500000D01*
X134679605Y-135500000D01*
X135652532Y-136472927D01*
X135919387Y-136374264D01*
X136145908Y-135764539D01*
X136121856Y-135114540D01*
X135919387Y-134625736D01*
X135652532Y-134527073D01*
X134679605Y-135500000D01*
X134320395Y-135500000D01*
X133347468Y-134527073D01*
X133080613Y-134625736D01*
X132854092Y-135235461D01*
X129626331Y-135235461D01*
X129621856Y-135114540D01*
X129419387Y-134625736D01*
X129152532Y-134527073D01*
X128179605Y-135500000D01*
X127820395Y-135500000D01*
X126847468Y-134527073D01*
X126580613Y-134625736D01*
X126354092Y-135235461D01*
X124644833Y-135235461D01*
X124621856Y-134614540D01*
X124419387Y-134125736D01*
X124152532Y-134027073D01*
X123179605Y-135000000D01*
X122820395Y-135000000D01*
X121847468Y-134027073D01*
X121580613Y-134125736D01*
X121354092Y-134735461D01*
X119647440Y-134735461D01*
X119647440Y-134000000D01*
X119618740Y-133847468D01*
X122027073Y-133847468D01*
X123000000Y-134820395D01*
X123972927Y-133847468D01*
X123874264Y-133580613D01*
X123264539Y-133354092D01*
X122614540Y-133378144D01*
X122125736Y-133580613D01*
X122027073Y-133847468D01*
X119618740Y-133847468D01*
X119603162Y-133764683D01*
X119464090Y-133548559D01*
X119251890Y-133403569D01*
X119000000Y-133352560D01*
X118885000Y-133352560D01*
X118885000Y-128857783D01*
X119091810Y-128816646D01*
X119627433Y-128458754D01*
X119744054Y-128284219D01*
X119922370Y-128511236D01*
X120485523Y-128827926D01*
X120617056Y-128859975D01*
X120873000Y-128740836D01*
X120873000Y-127127000D01*
X120853000Y-127127000D01*
X120853000Y-126873000D01*
X120873000Y-126873000D01*
X120873000Y-125259164D01*
X120617056Y-125140025D01*
X120485523Y-125172074D01*
X119922370Y-125488764D01*
X119744054Y-125715781D01*
X119627433Y-125541246D01*
X119091810Y-125183354D01*
X118460000Y-125057679D01*
X117828190Y-125183354D01*
X117292567Y-125541246D01*
X116934675Y-126076869D01*
X116809000Y-126708679D01*
X116809000Y-127291321D01*
X116934675Y-127923131D01*
X117115000Y-128193006D01*
X117115000Y-133352560D01*
X117000000Y-133352560D01*
X116764683Y-133396838D01*
X116548559Y-133535910D01*
X116403569Y-133748110D01*
X116352560Y-134000000D01*
X115710000Y-134000000D01*
X115710000Y-118152532D01*
X117027073Y-118152532D01*
X117125736Y-118419387D01*
X117735461Y-118645908D01*
X118385460Y-118621856D01*
X118874264Y-118419387D01*
X118972927Y-118152532D01*
X118000000Y-117179605D01*
X117027073Y-118152532D01*
X115710000Y-118152532D01*
X115710000Y-116735461D01*
X116354092Y-116735461D01*
X116378144Y-117385460D01*
X116580613Y-117874264D01*
X116847468Y-117972927D01*
X117820395Y-117000000D01*
X118179605Y-117000000D01*
X119152532Y-117972927D01*
X119419387Y-117874264D01*
X119645908Y-117264539D01*
X119621856Y-116614540D01*
X119419387Y-116125736D01*
X119152532Y-116027073D01*
X118179605Y-117000000D01*
X117820395Y-117000000D01*
X116847468Y-116027073D01*
X116580613Y-116125736D01*
X116354092Y-116735461D01*
X115710000Y-116735461D01*
X115710000Y-115847468D01*
X117027073Y-115847468D01*
X118000000Y-116820395D01*
X118972927Y-115847468D01*
X118874264Y-115580613D01*
X118264539Y-115354092D01*
X117614540Y-115378144D01*
X117125736Y-115580613D01*
X117027073Y-115847468D01*
X115710000Y-115847468D01*
X115710000Y-112127000D01*
X126809000Y-112127000D01*
X126809000Y-112381000D01*
X126983276Y-113003143D01*
X127382370Y-113511236D01*
X127945523Y-113827926D01*
X128077056Y-113859975D01*
X128333000Y-113740836D01*
X128333000Y-112127000D01*
X126809000Y-112127000D01*
X115710000Y-112127000D01*
X115710000Y-111619000D01*
X126809000Y-111619000D01*
X126809000Y-111873000D01*
X128333000Y-111873000D01*
X128333000Y-110259164D01*
X128077056Y-110140025D01*
X127945523Y-110172074D01*
X127382370Y-110488764D01*
X126983276Y-110996857D01*
X126809000Y-111619000D01*
X115710000Y-111619000D01*
X115710000Y-110469606D01*
X116469606Y-109710000D01*
X131038421Y-109710000D01*
X130613951Y-110134469D01*
M02*
