G04 #@! TF.FileFunction,Other,Fab,Top*
%FSLAX46Y46*%
G04 Gerber Fmt 4.6, Leading zero omitted, Abs format (unit mm)*
G04 Created by KiCad (PCBNEW 4.0.5) date Monday, 03 April 2017 'PMt' 15:58:44*
%MOMM*%
%LPD*%
G01*
G04 APERTURE LIST*
%ADD10C,0.100000*%
%ADD11C,0.150000*%
G04 APERTURE END LIST*
D10*
X139635000Y-117730000D02*
X144985000Y-117730000D01*
X144985000Y-117730000D02*
X144985000Y-153290000D01*
X144985000Y-153290000D02*
X138635000Y-153290000D01*
X138635000Y-153290000D02*
X138635000Y-118730000D01*
X138635000Y-118730000D02*
X139635000Y-117730000D01*
X125500000Y-135000000D02*
G75*
G03X125500000Y-135000000I-5000000J0D01*
G01*
X115300000Y-135000000D02*
X116800000Y-135000000D01*
X116050000Y-134250000D02*
X116050000Y-135750000D01*
X125500000Y-117000000D02*
G75*
G03X125500000Y-117000000I-5000000J0D01*
G01*
X125700000Y-117000000D02*
X124200000Y-117000000D01*
X124950000Y-117750000D02*
X124950000Y-116250000D01*
X125769984Y-152469666D02*
G75*
G03X125770000Y-149530306I2500016J1469666D01*
G01*
X130770000Y-151000000D02*
G75*
G03X130770000Y-151000000I-2500000J0D01*
G01*
X125770000Y-149530306D02*
X125770000Y-152469694D01*
X119350000Y-142000000D02*
G75*
G03X119350000Y-142000000I-1350000J0D01*
G01*
X118000000Y-142000000D02*
X118000000Y-147080000D01*
X136769984Y-113469666D02*
G75*
G03X136770000Y-110530306I2500016J1469666D01*
G01*
X141770000Y-112000000D02*
G75*
G03X141770000Y-112000000I-2500000J0D01*
G01*
X136770000Y-110530306D02*
X136770000Y-113469694D01*
X124260000Y-148460000D02*
X121720000Y-148460000D01*
X121720000Y-148460000D02*
X121720000Y-151250000D01*
X124260000Y-151250000D02*
X121720000Y-151250000D01*
X124260000Y-148460000D02*
X124260000Y-151250000D01*
X119260000Y-148460000D02*
X116720000Y-148460000D01*
X116720000Y-148460000D02*
X116720000Y-151250000D01*
X119260000Y-151250000D02*
X116720000Y-151250000D01*
X119260000Y-148460000D02*
X119260000Y-151250000D01*
X115390000Y-157220000D02*
X115390000Y-154170000D01*
X115390000Y-157220000D02*
X125580000Y-157220000D01*
X115390000Y-157220000D02*
X114890000Y-157220000D01*
X114890000Y-157220000D02*
X114890000Y-152400000D01*
X114890000Y-152400000D02*
X115390000Y-152650000D01*
X114890000Y-145540000D02*
X115390000Y-145790000D01*
X115390000Y-145790000D02*
X115390000Y-144780000D01*
X114890000Y-147190000D02*
X115390000Y-146940000D01*
X115390000Y-146940000D02*
X115390000Y-145790000D01*
X114890000Y-147190000D02*
X114890000Y-145540000D01*
X120020000Y-144780000D02*
X120020000Y-146680000D01*
X115950000Y-151250000D02*
X115950000Y-146680000D01*
X120020000Y-144780000D02*
X115950000Y-144780000D01*
X115950000Y-144780000D02*
X115390000Y-144780000D01*
X120960000Y-144780000D02*
X120960000Y-146680000D01*
X120960000Y-144780000D02*
X120020000Y-144780000D01*
X125020000Y-151250000D02*
X125020000Y-146680000D01*
X125580000Y-144780000D02*
X125020000Y-144780000D01*
X125020000Y-144780000D02*
X120960000Y-144780000D01*
X120020000Y-146680000D02*
X115950000Y-146680000D01*
X120020000Y-146680000D02*
X120020000Y-151250000D01*
X115950000Y-146680000D02*
X115950000Y-144780000D01*
X120960000Y-146680000D02*
X125020000Y-146680000D01*
X120960000Y-146680000D02*
X120960000Y-151250000D01*
X125020000Y-146680000D02*
X125020000Y-144780000D01*
X116330000Y-147320000D02*
X116330000Y-150490000D01*
X116330000Y-147320000D02*
X119640000Y-147320000D01*
X119640000Y-147320000D02*
X119640000Y-150490000D01*
X121340000Y-147320000D02*
X121340000Y-150490000D01*
X121340000Y-147320000D02*
X124640000Y-147320000D01*
X124640000Y-147320000D02*
X124640000Y-150490000D01*
X124640000Y-150490000D02*
X124260000Y-150490000D01*
X121340000Y-150490000D02*
X121720000Y-150490000D01*
X119640000Y-150490000D02*
X119260000Y-150490000D01*
X116330000Y-150490000D02*
X116720000Y-150490000D01*
X125580000Y-144780000D02*
X125580000Y-151640000D01*
X125580000Y-151640000D02*
X125580000Y-154170000D01*
X115390000Y-152650000D02*
X115390000Y-151640000D01*
X115390000Y-151640000D02*
X115390000Y-146940000D01*
X125580000Y-154170000D02*
X115390000Y-154170000D01*
X125580000Y-154170000D02*
X125580000Y-157220000D01*
X115390000Y-154170000D02*
X115390000Y-152650000D01*
X120020000Y-154430000D02*
X120020000Y-156970000D01*
X120020000Y-156970000D02*
X115950000Y-156970000D01*
X115950000Y-156970000D02*
X115950000Y-154430000D01*
X115950000Y-154430000D02*
X120020000Y-154430000D01*
X120960000Y-154430000D02*
X120960000Y-156970000D01*
X120960000Y-154430000D02*
X125020000Y-154430000D01*
X125020000Y-154430000D02*
X125020000Y-156970000D01*
X120960000Y-156970000D02*
X125020000Y-156970000D01*
X119610000Y-155450000D02*
X116560000Y-156080000D01*
X119480000Y-155320000D02*
X116440000Y-155950000D01*
X124620000Y-155450000D02*
X121560000Y-156080000D01*
X124490000Y-155320000D02*
X121440000Y-155950000D01*
X125020000Y-151250000D02*
X124640000Y-151250000D01*
X120960000Y-151250000D02*
X121340000Y-151250000D01*
X121340000Y-151250000D02*
X124640000Y-151250000D01*
X125580000Y-151640000D02*
X124640000Y-151640000D01*
X124640000Y-151640000D02*
X121340000Y-151640000D01*
X121340000Y-151640000D02*
X119640000Y-151640000D01*
X115390000Y-151640000D02*
X116330000Y-151640000D01*
X116330000Y-151640000D02*
X119640000Y-151640000D01*
X115950000Y-151250000D02*
X116330000Y-151250000D01*
X120020000Y-151250000D02*
X119640000Y-151250000D01*
X119640000Y-151250000D02*
X116330000Y-151250000D01*
X116514468Y-155076005D02*
G75*
G03X116460000Y-156050000I455532J-513995D01*
G01*
X119452333Y-155168263D02*
G75*
G03X116470000Y-155120000I-1522333J-1901737D01*
G01*
X116461761Y-156061687D02*
G75*
G03X119610000Y-156000000I1548239J1351687D01*
G01*
X119562972Y-156058699D02*
G75*
G03X119420000Y-155130000I-432972J408699D01*
G01*
X121514380Y-155086004D02*
G75*
G03X121470000Y-156050000I455620J-503996D01*
G01*
X124459829Y-155158582D02*
G75*
G03X121470000Y-155120000I-1519829J-1911418D01*
G01*
X121460024Y-156071534D02*
G75*
G03X124620000Y-156000000I1549976J1361534D01*
G01*
X124562972Y-156058699D02*
G75*
G03X124420000Y-155130000I-432972J408699D01*
G01*
X147540000Y-117260000D02*
X147540000Y-114720000D01*
X147540000Y-114720000D02*
X144750000Y-114720000D01*
X144750000Y-117260000D02*
X144750000Y-114720000D01*
X147540000Y-117260000D02*
X144750000Y-117260000D01*
X147540000Y-112260000D02*
X147540000Y-109720000D01*
X147540000Y-109720000D02*
X144750000Y-109720000D01*
X144750000Y-112260000D02*
X144750000Y-109720000D01*
X147540000Y-112260000D02*
X144750000Y-112260000D01*
X138780000Y-108390000D02*
X141830000Y-108390000D01*
X138780000Y-108390000D02*
X138780000Y-118580000D01*
X138780000Y-108390000D02*
X138780000Y-107890000D01*
X138780000Y-107890000D02*
X143600000Y-107890000D01*
X143600000Y-107890000D02*
X143350000Y-108390000D01*
X150460000Y-107890000D02*
X150210000Y-108390000D01*
X150210000Y-108390000D02*
X151220000Y-108390000D01*
X148810000Y-107890000D02*
X149060000Y-108390000D01*
X149060000Y-108390000D02*
X150210000Y-108390000D01*
X148810000Y-107890000D02*
X150460000Y-107890000D01*
X151220000Y-113020000D02*
X149320000Y-113020000D01*
X144750000Y-108950000D02*
X149320000Y-108950000D01*
X151220000Y-113020000D02*
X151220000Y-108950000D01*
X151220000Y-108950000D02*
X151220000Y-108390000D01*
X151220000Y-113960000D02*
X149320000Y-113960000D01*
X151220000Y-113960000D02*
X151220000Y-113020000D01*
X144750000Y-118020000D02*
X149320000Y-118020000D01*
X151220000Y-118580000D02*
X151220000Y-118020000D01*
X151220000Y-118020000D02*
X151220000Y-113960000D01*
X149320000Y-113020000D02*
X149320000Y-108950000D01*
X149320000Y-113020000D02*
X144750000Y-113020000D01*
X149320000Y-108950000D02*
X151220000Y-108950000D01*
X149320000Y-113960000D02*
X149320000Y-118020000D01*
X149320000Y-113960000D02*
X144750000Y-113960000D01*
X149320000Y-118020000D02*
X151220000Y-118020000D01*
X148680000Y-109330000D02*
X145510000Y-109330000D01*
X148680000Y-109330000D02*
X148680000Y-112640000D01*
X148680000Y-112640000D02*
X145510000Y-112640000D01*
X148680000Y-114340000D02*
X145510000Y-114340000D01*
X148680000Y-114340000D02*
X148680000Y-117640000D01*
X148680000Y-117640000D02*
X145510000Y-117640000D01*
X145510000Y-117640000D02*
X145510000Y-117260000D01*
X145510000Y-114340000D02*
X145510000Y-114720000D01*
X145510000Y-112640000D02*
X145510000Y-112260000D01*
X145510000Y-109330000D02*
X145510000Y-109720000D01*
X151220000Y-118580000D02*
X144360000Y-118580000D01*
X144360000Y-118580000D02*
X141830000Y-118580000D01*
X143350000Y-108390000D02*
X144360000Y-108390000D01*
X144360000Y-108390000D02*
X149060000Y-108390000D01*
X141830000Y-118580000D02*
X141830000Y-108390000D01*
X141830000Y-118580000D02*
X138780000Y-118580000D01*
X141830000Y-108390000D02*
X143350000Y-108390000D01*
X141570000Y-113020000D02*
X139030000Y-113020000D01*
X139030000Y-113020000D02*
X139030000Y-108950000D01*
X139030000Y-108950000D02*
X141570000Y-108950000D01*
X141570000Y-108950000D02*
X141570000Y-113020000D01*
X141570000Y-113960000D02*
X139030000Y-113960000D01*
X141570000Y-113960000D02*
X141570000Y-118020000D01*
X141570000Y-118020000D02*
X139030000Y-118020000D01*
X139030000Y-113960000D02*
X139030000Y-118020000D01*
X140550000Y-112610000D02*
X139920000Y-109560000D01*
X140680000Y-112480000D02*
X140050000Y-109440000D01*
X140550000Y-117620000D02*
X139920000Y-114560000D01*
X140680000Y-117490000D02*
X140050000Y-114440000D01*
X144750000Y-118020000D02*
X144750000Y-117640000D01*
X144750000Y-113960000D02*
X144750000Y-114340000D01*
X144750000Y-114340000D02*
X144750000Y-117640000D01*
X144360000Y-118580000D02*
X144360000Y-117640000D01*
X144360000Y-117640000D02*
X144360000Y-114340000D01*
X144360000Y-114340000D02*
X144360000Y-112640000D01*
X144360000Y-108390000D02*
X144360000Y-109330000D01*
X144360000Y-109330000D02*
X144360000Y-112640000D01*
X144750000Y-108950000D02*
X144750000Y-109330000D01*
X144750000Y-113020000D02*
X144750000Y-112640000D01*
X144750000Y-112640000D02*
X144750000Y-109330000D01*
X140923995Y-109514468D02*
G75*
G03X139950000Y-109460000I-513995J-455532D01*
G01*
X140831737Y-112452333D02*
G75*
G03X140880000Y-109470000I-1901737J1522333D01*
G01*
X139938313Y-109461761D02*
G75*
G03X140000000Y-112610000I1351687J-1548239D01*
G01*
X139941301Y-112562972D02*
G75*
G03X140870000Y-112420000I408699J432972D01*
G01*
X140913996Y-114514380D02*
G75*
G03X139950000Y-114470000I-503996J-455620D01*
G01*
X140841418Y-117459829D02*
G75*
G03X140880000Y-114470000I-1911418J1519829D01*
G01*
X139928466Y-114460024D02*
G75*
G03X140000000Y-117620000I1361534J-1549976D01*
G01*
X139941301Y-117562972D02*
G75*
G03X140870000Y-117420000I408699J432972D01*
G01*
X135800000Y-151000000D02*
G75*
G03X135800000Y-151000000I-800000J0D01*
G01*
X135000000Y-151000000D02*
X132460000Y-151000000D01*
X129800000Y-128000000D02*
G75*
G03X129800000Y-128000000I-800000J0D01*
G01*
X129000000Y-128000000D02*
X131540000Y-128000000D01*
X133800000Y-122000000D02*
G75*
G03X133800000Y-122000000I-800000J0D01*
G01*
X133000000Y-122000000D02*
X133000000Y-119460000D01*
X129800000Y-125000000D02*
G75*
G03X129800000Y-125000000I-800000J0D01*
G01*
X129000000Y-125000000D02*
X131540000Y-125000000D01*
X130675000Y-140325000D02*
G75*
G02X135325000Y-140325000I2325000J0D01*
G01*
X130675000Y-146575000D02*
G75*
G03X135325000Y-146575000I2325000J0D01*
G01*
X131000000Y-140450000D02*
G75*
G02X135000000Y-140450000I2000000J0D01*
G01*
X131000000Y-146450000D02*
G75*
G03X135000000Y-146450000I2000000J0D01*
G01*
X135325000Y-140325000D02*
X135325000Y-146575000D01*
X130675000Y-140325000D02*
X130675000Y-146575000D01*
X135000000Y-140450000D02*
X135000000Y-146450000D01*
X131000000Y-140450000D02*
X131000000Y-146450000D01*
X131250000Y-130250000D02*
X134250000Y-130250000D01*
X134250000Y-130250000D02*
X134250000Y-136250000D01*
X134250000Y-136250000D02*
X128250000Y-136250000D01*
X128250000Y-136250000D02*
X128250000Y-130250000D01*
X128250000Y-130250000D02*
X131250000Y-130250000D01*
X133265564Y-133250000D02*
G75*
G03X133265564Y-133250000I-2015564J0D01*
G01*
X131500000Y-120750000D02*
G75*
G03X131500000Y-120750000I-2500000J0D01*
G01*
X129000000Y-124200000D02*
X129000000Y-123000000D01*
X128350000Y-123600000D02*
X129650000Y-123600000D01*
X129250000Y-140000000D02*
G75*
G03X129250000Y-140000000I-2500000J0D01*
G01*
X130200000Y-140000000D02*
X129000000Y-140000000D01*
X129600000Y-140650000D02*
X129600000Y-139350000D01*
X127250000Y-145000000D02*
G75*
G03X127250000Y-145000000I-2500000J0D01*
G01*
X128200000Y-145000000D02*
X127000000Y-145000000D01*
X127600000Y-145650000D02*
X127600000Y-144350000D01*
D11*
X137643333Y-154576667D02*
X138119524Y-154576667D01*
X137548095Y-154862381D02*
X137881428Y-153862381D01*
X138214762Y-154862381D01*
X138405238Y-153862381D02*
X138976667Y-153862381D01*
X138690952Y-154862381D02*
X138690952Y-153862381D01*
X139310000Y-154862381D02*
X139310000Y-153862381D01*
X139643334Y-154576667D01*
X139976667Y-153862381D01*
X139976667Y-154862381D01*
X140452857Y-154338571D02*
X140786191Y-154338571D01*
X140929048Y-154862381D02*
X140452857Y-154862381D01*
X140452857Y-153862381D01*
X140929048Y-153862381D01*
X141881429Y-153910000D02*
X141786191Y-153862381D01*
X141643334Y-153862381D01*
X141500476Y-153910000D01*
X141405238Y-154005238D01*
X141357619Y-154100476D01*
X141310000Y-154290952D01*
X141310000Y-154433810D01*
X141357619Y-154624286D01*
X141405238Y-154719524D01*
X141500476Y-154814762D01*
X141643334Y-154862381D01*
X141738572Y-154862381D01*
X141881429Y-154814762D01*
X141929048Y-154767143D01*
X141929048Y-154433810D01*
X141738572Y-154433810D01*
X142310000Y-154576667D02*
X142786191Y-154576667D01*
X142214762Y-154862381D02*
X142548095Y-153862381D01*
X142881429Y-154862381D01*
X143357619Y-154290952D02*
X143262381Y-154243333D01*
X143214762Y-154195714D01*
X143167143Y-154100476D01*
X143167143Y-154052857D01*
X143214762Y-153957619D01*
X143262381Y-153910000D01*
X143357619Y-153862381D01*
X143548096Y-153862381D01*
X143643334Y-153910000D01*
X143690953Y-153957619D01*
X143738572Y-154052857D01*
X143738572Y-154100476D01*
X143690953Y-154195714D01*
X143643334Y-154243333D01*
X143548096Y-154290952D01*
X143357619Y-154290952D01*
X143262381Y-154338571D01*
X143214762Y-154386190D01*
X143167143Y-154481429D01*
X143167143Y-154671905D01*
X143214762Y-154767143D01*
X143262381Y-154814762D01*
X143357619Y-154862381D01*
X143548096Y-154862381D01*
X143643334Y-154814762D01*
X143690953Y-154767143D01*
X143738572Y-154671905D01*
X143738572Y-154481429D01*
X143690953Y-154386190D01*
X143643334Y-154338571D01*
X143548096Y-154290952D01*
X144167143Y-154481429D02*
X144929048Y-154481429D01*
X145405238Y-154862381D02*
X145405238Y-153862381D01*
X145786191Y-153862381D01*
X145881429Y-153910000D01*
X145929048Y-153957619D01*
X145976667Y-154052857D01*
X145976667Y-154195714D01*
X145929048Y-154290952D01*
X145881429Y-154338571D01*
X145786191Y-154386190D01*
X145405238Y-154386190D01*
X117000000Y-141512381D02*
X116428571Y-141512381D01*
X116714285Y-141512381D02*
X116714285Y-140512381D01*
X116619047Y-140655238D01*
X116523809Y-140750476D01*
X116428571Y-140798095D01*
X117619047Y-140512381D02*
X117714286Y-140512381D01*
X117809524Y-140560000D01*
X117857143Y-140607619D01*
X117904762Y-140702857D01*
X117952381Y-140893333D01*
X117952381Y-141131429D01*
X117904762Y-141321905D01*
X117857143Y-141417143D01*
X117809524Y-141464762D01*
X117714286Y-141512381D01*
X117619047Y-141512381D01*
X117523809Y-141464762D01*
X117476190Y-141417143D01*
X117428571Y-141321905D01*
X117380952Y-141131429D01*
X117380952Y-140893333D01*
X117428571Y-140702857D01*
X117476190Y-140607619D01*
X117523809Y-140560000D01*
X117619047Y-140512381D01*
X118571428Y-140512381D02*
X118666667Y-140512381D01*
X118761905Y-140560000D01*
X118809524Y-140607619D01*
X118857143Y-140702857D01*
X118904762Y-140893333D01*
X118904762Y-141131429D01*
X118857143Y-141321905D01*
X118809524Y-141417143D01*
X118761905Y-141464762D01*
X118666667Y-141512381D01*
X118571428Y-141512381D01*
X118476190Y-141464762D01*
X118428571Y-141417143D01*
X118380952Y-141321905D01*
X118333333Y-141131429D01*
X118333333Y-140893333D01*
X118380952Y-140702857D01*
X118428571Y-140607619D01*
X118476190Y-140560000D01*
X118571428Y-140512381D01*
X119523809Y-140512381D02*
X119619048Y-140512381D01*
X119714286Y-140560000D01*
X119761905Y-140607619D01*
X119809524Y-140702857D01*
X119857143Y-140893333D01*
X119857143Y-141131429D01*
X119809524Y-141321905D01*
X119761905Y-141417143D01*
X119714286Y-141464762D01*
X119619048Y-141512381D01*
X119523809Y-141512381D01*
X119428571Y-141464762D01*
X119380952Y-141417143D01*
X119333333Y-141321905D01*
X119285714Y-141131429D01*
X119285714Y-140893333D01*
X119333333Y-140702857D01*
X119380952Y-140607619D01*
X119428571Y-140560000D01*
X119523809Y-140512381D01*
X120714286Y-140845714D02*
X120714286Y-141512381D01*
X120285714Y-140845714D02*
X120285714Y-141369524D01*
X120333333Y-141464762D01*
X120428571Y-141512381D01*
X120571429Y-141512381D01*
X120666667Y-141464762D01*
X120714286Y-141417143D01*
X121904762Y-140464762D02*
X121047619Y-141750476D01*
X122761905Y-141512381D02*
X122190476Y-141512381D01*
X122476190Y-141512381D02*
X122476190Y-140512381D01*
X122380952Y-140655238D01*
X122285714Y-140750476D01*
X122190476Y-140798095D01*
X123619048Y-140512381D02*
X123428571Y-140512381D01*
X123333333Y-140560000D01*
X123285714Y-140607619D01*
X123190476Y-140750476D01*
X123142857Y-140940952D01*
X123142857Y-141321905D01*
X123190476Y-141417143D01*
X123238095Y-141464762D01*
X123333333Y-141512381D01*
X123523810Y-141512381D01*
X123619048Y-141464762D01*
X123666667Y-141417143D01*
X123714286Y-141321905D01*
X123714286Y-141083810D01*
X123666667Y-140988571D01*
X123619048Y-140940952D01*
X123523810Y-140893333D01*
X123333333Y-140893333D01*
X123238095Y-140940952D01*
X123190476Y-140988571D01*
X123142857Y-141083810D01*
X124000000Y-140512381D02*
X124333333Y-141512381D01*
X124666667Y-140512381D01*
X117000000Y-111392381D02*
X116428571Y-111392381D01*
X116714285Y-111392381D02*
X116714285Y-110392381D01*
X116619047Y-110535238D01*
X116523809Y-110630476D01*
X116428571Y-110678095D01*
X117619047Y-110392381D02*
X117714286Y-110392381D01*
X117809524Y-110440000D01*
X117857143Y-110487619D01*
X117904762Y-110582857D01*
X117952381Y-110773333D01*
X117952381Y-111011429D01*
X117904762Y-111201905D01*
X117857143Y-111297143D01*
X117809524Y-111344762D01*
X117714286Y-111392381D01*
X117619047Y-111392381D01*
X117523809Y-111344762D01*
X117476190Y-111297143D01*
X117428571Y-111201905D01*
X117380952Y-111011429D01*
X117380952Y-110773333D01*
X117428571Y-110582857D01*
X117476190Y-110487619D01*
X117523809Y-110440000D01*
X117619047Y-110392381D01*
X118571428Y-110392381D02*
X118666667Y-110392381D01*
X118761905Y-110440000D01*
X118809524Y-110487619D01*
X118857143Y-110582857D01*
X118904762Y-110773333D01*
X118904762Y-111011429D01*
X118857143Y-111201905D01*
X118809524Y-111297143D01*
X118761905Y-111344762D01*
X118666667Y-111392381D01*
X118571428Y-111392381D01*
X118476190Y-111344762D01*
X118428571Y-111297143D01*
X118380952Y-111201905D01*
X118333333Y-111011429D01*
X118333333Y-110773333D01*
X118380952Y-110582857D01*
X118428571Y-110487619D01*
X118476190Y-110440000D01*
X118571428Y-110392381D01*
X119523809Y-110392381D02*
X119619048Y-110392381D01*
X119714286Y-110440000D01*
X119761905Y-110487619D01*
X119809524Y-110582857D01*
X119857143Y-110773333D01*
X119857143Y-111011429D01*
X119809524Y-111201905D01*
X119761905Y-111297143D01*
X119714286Y-111344762D01*
X119619048Y-111392381D01*
X119523809Y-111392381D01*
X119428571Y-111344762D01*
X119380952Y-111297143D01*
X119333333Y-111201905D01*
X119285714Y-111011429D01*
X119285714Y-110773333D01*
X119333333Y-110582857D01*
X119380952Y-110487619D01*
X119428571Y-110440000D01*
X119523809Y-110392381D01*
X120714286Y-110725714D02*
X120714286Y-111392381D01*
X120285714Y-110725714D02*
X120285714Y-111249524D01*
X120333333Y-111344762D01*
X120428571Y-111392381D01*
X120571429Y-111392381D01*
X120666667Y-111344762D01*
X120714286Y-111297143D01*
X121904762Y-110344762D02*
X121047619Y-111630476D01*
X122761905Y-111392381D02*
X122190476Y-111392381D01*
X122476190Y-111392381D02*
X122476190Y-110392381D01*
X122380952Y-110535238D01*
X122285714Y-110630476D01*
X122190476Y-110678095D01*
X123619048Y-110392381D02*
X123428571Y-110392381D01*
X123333333Y-110440000D01*
X123285714Y-110487619D01*
X123190476Y-110630476D01*
X123142857Y-110820952D01*
X123142857Y-111201905D01*
X123190476Y-111297143D01*
X123238095Y-111344762D01*
X123333333Y-111392381D01*
X123523810Y-111392381D01*
X123619048Y-111344762D01*
X123666667Y-111297143D01*
X123714286Y-111201905D01*
X123714286Y-110963810D01*
X123666667Y-110868571D01*
X123619048Y-110820952D01*
X123523810Y-110773333D01*
X123333333Y-110773333D01*
X123238095Y-110820952D01*
X123190476Y-110868571D01*
X123142857Y-110963810D01*
X124000000Y-110392381D02*
X124333333Y-111392381D01*
X124666667Y-110392381D01*
X126865238Y-154412381D02*
X127436667Y-154412381D01*
X127150952Y-155412381D02*
X127150952Y-154412381D01*
X128150953Y-155364762D02*
X128055715Y-155412381D01*
X127865238Y-155412381D01*
X127770000Y-155364762D01*
X127722381Y-155269524D01*
X127722381Y-154888571D01*
X127770000Y-154793333D01*
X127865238Y-154745714D01*
X128055715Y-154745714D01*
X128150953Y-154793333D01*
X128198572Y-154888571D01*
X128198572Y-154983810D01*
X127722381Y-155079048D01*
X128579524Y-155364762D02*
X128674762Y-155412381D01*
X128865238Y-155412381D01*
X128960477Y-155364762D01*
X129008096Y-155269524D01*
X129008096Y-155221905D01*
X128960477Y-155126667D01*
X128865238Y-155079048D01*
X128722381Y-155079048D01*
X128627143Y-155031429D01*
X128579524Y-154936190D01*
X128579524Y-154888571D01*
X128627143Y-154793333D01*
X128722381Y-154745714D01*
X128865238Y-154745714D01*
X128960477Y-154793333D01*
X129293810Y-154745714D02*
X129674762Y-154745714D01*
X129436667Y-154412381D02*
X129436667Y-155269524D01*
X129484286Y-155364762D01*
X129579524Y-155412381D01*
X129674762Y-155412381D01*
X113518572Y-144992381D02*
X112947143Y-144992381D01*
X113232857Y-144992381D02*
X113232857Y-143992381D01*
X113137619Y-144135238D01*
X113042381Y-144230476D01*
X112947143Y-144278095D01*
X113947143Y-144325714D02*
X113947143Y-144992381D01*
X113947143Y-144420952D02*
X113994762Y-144373333D01*
X114090000Y-144325714D01*
X114232858Y-144325714D01*
X114328096Y-144373333D01*
X114375715Y-144468571D01*
X114375715Y-144992381D01*
X115280477Y-144325714D02*
X115280477Y-144992381D01*
X115042381Y-143944762D02*
X114804286Y-144659048D01*
X115423334Y-144659048D01*
X115994762Y-143992381D02*
X116090001Y-143992381D01*
X116185239Y-144040000D01*
X116232858Y-144087619D01*
X116280477Y-144182857D01*
X116328096Y-144373333D01*
X116328096Y-144611429D01*
X116280477Y-144801905D01*
X116232858Y-144897143D01*
X116185239Y-144944762D01*
X116090001Y-144992381D01*
X115994762Y-144992381D01*
X115899524Y-144944762D01*
X115851905Y-144897143D01*
X115804286Y-144801905D01*
X115756667Y-144611429D01*
X115756667Y-144373333D01*
X115804286Y-144182857D01*
X115851905Y-144087619D01*
X115899524Y-144040000D01*
X115994762Y-143992381D01*
X116947143Y-143992381D02*
X117042382Y-143992381D01*
X117137620Y-144040000D01*
X117185239Y-144087619D01*
X117232858Y-144182857D01*
X117280477Y-144373333D01*
X117280477Y-144611429D01*
X117232858Y-144801905D01*
X117185239Y-144897143D01*
X117137620Y-144944762D01*
X117042382Y-144992381D01*
X116947143Y-144992381D01*
X116851905Y-144944762D01*
X116804286Y-144897143D01*
X116756667Y-144801905D01*
X116709048Y-144611429D01*
X116709048Y-144373333D01*
X116756667Y-144182857D01*
X116804286Y-144087619D01*
X116851905Y-144040000D01*
X116947143Y-143992381D01*
X118137620Y-144325714D02*
X118137620Y-144992381D01*
X117899524Y-143944762D02*
X117661429Y-144659048D01*
X118280477Y-144659048D01*
X118452381Y-140151905D02*
X117452381Y-140151905D01*
X118452381Y-139580476D02*
X117880952Y-140009048D01*
X117452381Y-139580476D02*
X118023810Y-140151905D01*
X137865238Y-115412381D02*
X138436667Y-115412381D01*
X138150952Y-116412381D02*
X138150952Y-115412381D01*
X139150953Y-116364762D02*
X139055715Y-116412381D01*
X138865238Y-116412381D01*
X138770000Y-116364762D01*
X138722381Y-116269524D01*
X138722381Y-115888571D01*
X138770000Y-115793333D01*
X138865238Y-115745714D01*
X139055715Y-115745714D01*
X139150953Y-115793333D01*
X139198572Y-115888571D01*
X139198572Y-115983810D01*
X138722381Y-116079048D01*
X139579524Y-116364762D02*
X139674762Y-116412381D01*
X139865238Y-116412381D01*
X139960477Y-116364762D01*
X140008096Y-116269524D01*
X140008096Y-116221905D01*
X139960477Y-116126667D01*
X139865238Y-116079048D01*
X139722381Y-116079048D01*
X139627143Y-116031429D01*
X139579524Y-115936190D01*
X139579524Y-115888571D01*
X139627143Y-115793333D01*
X139722381Y-115745714D01*
X139865238Y-115745714D01*
X139960477Y-115793333D01*
X140293810Y-115745714D02*
X140674762Y-115745714D01*
X140436667Y-115412381D02*
X140436667Y-116269524D01*
X140484286Y-116364762D01*
X140579524Y-116412381D01*
X140674762Y-116412381D01*
X119553334Y-143178571D02*
X119696191Y-143226190D01*
X119743810Y-143273810D01*
X119791429Y-143369048D01*
X119791429Y-143511905D01*
X119743810Y-143607143D01*
X119696191Y-143654762D01*
X119600953Y-143702381D01*
X119220000Y-143702381D01*
X119220000Y-142702381D01*
X119553334Y-142702381D01*
X119648572Y-142750000D01*
X119696191Y-142797619D01*
X119743810Y-142892857D01*
X119743810Y-142988095D01*
X119696191Y-143083333D01*
X119648572Y-143130952D01*
X119553334Y-143178571D01*
X119220000Y-143178571D01*
X120648572Y-143702381D02*
X120648572Y-143178571D01*
X120600953Y-143083333D01*
X120505715Y-143035714D01*
X120315238Y-143035714D01*
X120220000Y-143083333D01*
X120648572Y-143654762D02*
X120553334Y-143702381D01*
X120315238Y-143702381D01*
X120220000Y-143654762D01*
X120172381Y-143559524D01*
X120172381Y-143464286D01*
X120220000Y-143369048D01*
X120315238Y-143321429D01*
X120553334Y-143321429D01*
X120648572Y-143273810D01*
X120981905Y-143035714D02*
X121362857Y-143035714D01*
X121124762Y-142702381D02*
X121124762Y-143559524D01*
X121172381Y-143654762D01*
X121267619Y-143702381D01*
X121362857Y-143702381D01*
X152564381Y-117539333D02*
X152564381Y-118015524D01*
X151564381Y-118015524D01*
X152040571Y-117206000D02*
X152040571Y-116872666D01*
X152564381Y-116729809D02*
X152564381Y-117206000D01*
X151564381Y-117206000D01*
X151564381Y-116729809D01*
X152564381Y-116301238D02*
X151564381Y-116301238D01*
X151564381Y-116063143D01*
X151612000Y-115920285D01*
X151707238Y-115825047D01*
X151802476Y-115777428D01*
X151992952Y-115729809D01*
X152135810Y-115729809D01*
X152326286Y-115777428D01*
X152421524Y-115825047D01*
X152516762Y-115920285D01*
X152564381Y-116063143D01*
X152564381Y-116301238D01*
X152516762Y-115348857D02*
X152564381Y-115206000D01*
X152564381Y-114967904D01*
X152516762Y-114872666D01*
X152469143Y-114825047D01*
X152373905Y-114777428D01*
X152278667Y-114777428D01*
X152183429Y-114825047D01*
X152135810Y-114872666D01*
X152088190Y-114967904D01*
X152040571Y-115158381D01*
X151992952Y-115253619D01*
X151945333Y-115301238D01*
X151850095Y-115348857D01*
X151754857Y-115348857D01*
X151659619Y-115301238D01*
X151612000Y-115253619D01*
X151564381Y-115158381D01*
X151564381Y-114920285D01*
X151612000Y-114777428D01*
X151564381Y-113396476D02*
X151564381Y-113205999D01*
X151612000Y-113110761D01*
X151707238Y-113015523D01*
X151897714Y-112967904D01*
X152231048Y-112967904D01*
X152421524Y-113015523D01*
X152516762Y-113110761D01*
X152564381Y-113205999D01*
X152564381Y-113396476D01*
X152516762Y-113491714D01*
X152421524Y-113586952D01*
X152231048Y-113634571D01*
X151897714Y-113634571D01*
X151707238Y-113586952D01*
X151612000Y-113491714D01*
X151564381Y-113396476D01*
X151564381Y-112539333D02*
X152373905Y-112539333D01*
X152469143Y-112491714D01*
X152516762Y-112444095D01*
X152564381Y-112348857D01*
X152564381Y-112158380D01*
X152516762Y-112063142D01*
X152469143Y-112015523D01*
X152373905Y-111967904D01*
X151564381Y-111967904D01*
X151564381Y-111634571D02*
X151564381Y-111063142D01*
X152564381Y-111348857D02*
X151564381Y-111348857D01*
X152564381Y-110729809D02*
X151564381Y-110729809D01*
X151564381Y-110348856D01*
X151612000Y-110253618D01*
X151659619Y-110205999D01*
X151754857Y-110158380D01*
X151897714Y-110158380D01*
X151992952Y-110205999D01*
X152040571Y-110253618D01*
X152088190Y-110348856D01*
X152088190Y-110729809D01*
X151564381Y-109729809D02*
X152373905Y-109729809D01*
X152469143Y-109682190D01*
X152516762Y-109634571D01*
X152564381Y-109539333D01*
X152564381Y-109348856D01*
X152516762Y-109253618D01*
X152469143Y-109205999D01*
X152373905Y-109158380D01*
X151564381Y-109158380D01*
X151564381Y-108825047D02*
X151564381Y-108253618D01*
X152564381Y-108539333D02*
X151564381Y-108539333D01*
X128119048Y-116770381D02*
X128119048Y-115770381D01*
X129166667Y-116770381D02*
X128833333Y-116294190D01*
X128595238Y-116770381D02*
X128595238Y-115770381D01*
X128976191Y-115770381D01*
X129071429Y-115818000D01*
X129119048Y-115865619D01*
X129166667Y-115960857D01*
X129166667Y-116103714D01*
X129119048Y-116198952D01*
X129071429Y-116246571D01*
X128976191Y-116294190D01*
X128595238Y-116294190D01*
X129928572Y-116246571D02*
X129595238Y-116246571D01*
X129595238Y-116770381D02*
X129595238Y-115770381D01*
X130071429Y-115770381D01*
X130928572Y-115770381D02*
X130452381Y-115770381D01*
X130404762Y-116246571D01*
X130452381Y-116198952D01*
X130547619Y-116151333D01*
X130785715Y-116151333D01*
X130880953Y-116198952D01*
X130928572Y-116246571D01*
X130976191Y-116341810D01*
X130976191Y-116579905D01*
X130928572Y-116675143D01*
X130880953Y-116722762D01*
X130785715Y-116770381D01*
X130547619Y-116770381D01*
X130452381Y-116722762D01*
X130404762Y-116675143D01*
X131833334Y-116103714D02*
X131833334Y-116770381D01*
X131595238Y-115722762D02*
X131357143Y-116437048D01*
X131976191Y-116437048D01*
X132547619Y-115770381D02*
X132642858Y-115770381D01*
X132738096Y-115818000D01*
X132785715Y-115865619D01*
X132833334Y-115960857D01*
X132880953Y-116151333D01*
X132880953Y-116389429D01*
X132833334Y-116579905D01*
X132785715Y-116675143D01*
X132738096Y-116722762D01*
X132642858Y-116770381D01*
X132547619Y-116770381D01*
X132452381Y-116722762D01*
X132404762Y-116675143D01*
X132357143Y-116579905D01*
X132309524Y-116389429D01*
X132309524Y-116151333D01*
X132357143Y-115960857D01*
X132404762Y-115865619D01*
X132452381Y-115818000D01*
X132547619Y-115770381D01*
X133309524Y-116770381D02*
X133309524Y-115770381D01*
X133880953Y-116770381D01*
X133880953Y-115770381D01*
X133610953Y-149592381D02*
X133039524Y-149592381D01*
X133325238Y-149592381D02*
X133325238Y-148592381D01*
X133230000Y-148735238D01*
X133134762Y-148830476D01*
X133039524Y-148878095D01*
X134039524Y-149592381D02*
X134039524Y-148592381D01*
X134134762Y-149211429D02*
X134420477Y-149592381D01*
X134420477Y-148925714D02*
X134039524Y-149306667D01*
X129674762Y-130312381D02*
X129103333Y-130312381D01*
X129389047Y-130312381D02*
X129389047Y-129312381D01*
X129293809Y-129455238D01*
X129198571Y-129550476D01*
X129103333Y-129598095D01*
X130293809Y-129312381D02*
X130389048Y-129312381D01*
X130484286Y-129360000D01*
X130531905Y-129407619D01*
X130579524Y-129502857D01*
X130627143Y-129693333D01*
X130627143Y-129931429D01*
X130579524Y-130121905D01*
X130531905Y-130217143D01*
X130484286Y-130264762D01*
X130389048Y-130312381D01*
X130293809Y-130312381D01*
X130198571Y-130264762D01*
X130150952Y-130217143D01*
X130103333Y-130121905D01*
X130055714Y-129931429D01*
X130055714Y-129693333D01*
X130103333Y-129502857D01*
X130150952Y-129407619D01*
X130198571Y-129360000D01*
X130293809Y-129312381D01*
X131055714Y-130312381D02*
X131055714Y-129312381D01*
X131150952Y-129931429D02*
X131436667Y-130312381D01*
X131436667Y-129645714D02*
X131055714Y-130026667D01*
X135312381Y-120849047D02*
X135312381Y-121420476D01*
X135312381Y-121134762D02*
X134312381Y-121134762D01*
X134455238Y-121230000D01*
X134550476Y-121325238D01*
X134598095Y-121420476D01*
X135312381Y-120420476D02*
X134312381Y-120420476D01*
X134931429Y-120325238D02*
X135312381Y-120039523D01*
X134645714Y-120039523D02*
X135026667Y-120420476D01*
X129674762Y-127312381D02*
X129103333Y-127312381D01*
X129389047Y-127312381D02*
X129389047Y-126312381D01*
X129293809Y-126455238D01*
X129198571Y-126550476D01*
X129103333Y-126598095D01*
X130293809Y-126312381D02*
X130389048Y-126312381D01*
X130484286Y-126360000D01*
X130531905Y-126407619D01*
X130579524Y-126502857D01*
X130627143Y-126693333D01*
X130627143Y-126931429D01*
X130579524Y-127121905D01*
X130531905Y-127217143D01*
X130484286Y-127264762D01*
X130389048Y-127312381D01*
X130293809Y-127312381D01*
X130198571Y-127264762D01*
X130150952Y-127217143D01*
X130103333Y-127121905D01*
X130055714Y-126931429D01*
X130055714Y-126693333D01*
X130103333Y-126502857D01*
X130150952Y-126407619D01*
X130198571Y-126360000D01*
X130293809Y-126312381D01*
X131055714Y-127312381D02*
X131055714Y-126312381D01*
X131150952Y-126931429D02*
X131436667Y-127312381D01*
X131436667Y-126645714D02*
X131055714Y-127026667D01*
X117380953Y-123134381D02*
X116904762Y-123134381D01*
X116904762Y-122134381D01*
X117714286Y-123134381D02*
X117714286Y-122134381D01*
X118047620Y-122848667D01*
X118380953Y-122134381D01*
X118380953Y-123134381D01*
X118761905Y-122134381D02*
X119428572Y-122134381D01*
X119000000Y-123134381D01*
X119952381Y-122562952D02*
X119857143Y-122515333D01*
X119809524Y-122467714D01*
X119761905Y-122372476D01*
X119761905Y-122324857D01*
X119809524Y-122229619D01*
X119857143Y-122182000D01*
X119952381Y-122134381D01*
X120142858Y-122134381D01*
X120238096Y-122182000D01*
X120285715Y-122229619D01*
X120333334Y-122324857D01*
X120333334Y-122372476D01*
X120285715Y-122467714D01*
X120238096Y-122515333D01*
X120142858Y-122562952D01*
X119952381Y-122562952D01*
X119857143Y-122610571D01*
X119809524Y-122658190D01*
X119761905Y-122753429D01*
X119761905Y-122943905D01*
X119809524Y-123039143D01*
X119857143Y-123086762D01*
X119952381Y-123134381D01*
X120142858Y-123134381D01*
X120238096Y-123086762D01*
X120285715Y-123039143D01*
X120333334Y-122943905D01*
X120333334Y-122753429D01*
X120285715Y-122658190D01*
X120238096Y-122610571D01*
X120142858Y-122562952D01*
X120761905Y-123134381D02*
X120761905Y-122134381D01*
X121095239Y-122848667D01*
X121428572Y-122134381D01*
X121428572Y-123134381D01*
X122095238Y-122134381D02*
X122190477Y-122134381D01*
X122285715Y-122182000D01*
X122333334Y-122229619D01*
X122380953Y-122324857D01*
X122428572Y-122515333D01*
X122428572Y-122753429D01*
X122380953Y-122943905D01*
X122333334Y-123039143D01*
X122285715Y-123086762D01*
X122190477Y-123134381D01*
X122095238Y-123134381D01*
X122000000Y-123086762D01*
X121952381Y-123039143D01*
X121904762Y-122943905D01*
X121857143Y-122753429D01*
X121857143Y-122515333D01*
X121904762Y-122324857D01*
X121952381Y-122229619D01*
X122000000Y-122182000D01*
X122095238Y-122134381D01*
X123333334Y-122134381D02*
X122857143Y-122134381D01*
X122809524Y-122610571D01*
X122857143Y-122562952D01*
X122952381Y-122515333D01*
X123190477Y-122515333D01*
X123285715Y-122562952D01*
X123333334Y-122610571D01*
X123380953Y-122705810D01*
X123380953Y-122943905D01*
X123333334Y-123039143D01*
X123285715Y-123086762D01*
X123190477Y-123134381D01*
X122952381Y-123134381D01*
X122857143Y-123086762D01*
X122809524Y-123039143D01*
X124380953Y-123039143D02*
X124333334Y-123086762D01*
X124190477Y-123134381D01*
X124095239Y-123134381D01*
X123952381Y-123086762D01*
X123857143Y-122991524D01*
X123809524Y-122896286D01*
X123761905Y-122705810D01*
X123761905Y-122562952D01*
X123809524Y-122372476D01*
X123857143Y-122277238D01*
X123952381Y-122182000D01*
X124095239Y-122134381D01*
X124190477Y-122134381D01*
X124333334Y-122182000D01*
X124380953Y-122229619D01*
X124666667Y-122134381D02*
X125238096Y-122134381D01*
X124952381Y-123134381D02*
X124952381Y-122134381D01*
X129927381Y-145140476D02*
X129927381Y-145711905D01*
X129927381Y-145426191D02*
X128927381Y-145426191D01*
X129070238Y-145521429D01*
X129165476Y-145616667D01*
X129213095Y-145711905D01*
X128927381Y-144283333D02*
X128927381Y-144473810D01*
X128975000Y-144569048D01*
X129022619Y-144616667D01*
X129165476Y-144711905D01*
X129355952Y-144759524D01*
X129736905Y-144759524D01*
X129832143Y-144711905D01*
X129879762Y-144664286D01*
X129927381Y-144569048D01*
X129927381Y-144378571D01*
X129879762Y-144283333D01*
X129832143Y-144235714D01*
X129736905Y-144188095D01*
X129498810Y-144188095D01*
X129403571Y-144235714D01*
X129355952Y-144283333D01*
X129308333Y-144378571D01*
X129308333Y-144569048D01*
X129355952Y-144664286D01*
X129403571Y-144711905D01*
X129498810Y-144759524D01*
X129927381Y-143759524D02*
X128927381Y-143759524D01*
X129641667Y-143426190D01*
X128927381Y-143092857D01*
X129927381Y-143092857D01*
X129927381Y-142616667D02*
X128927381Y-142616667D01*
X129403571Y-142616667D02*
X129403571Y-142045238D01*
X129927381Y-142045238D02*
X128927381Y-142045238D01*
X129260714Y-141664286D02*
X129260714Y-141140476D01*
X129927381Y-141664286D01*
X129927381Y-141140476D01*
X130286380Y-138056381D02*
X130286380Y-137056381D01*
X130667333Y-137056381D01*
X130762571Y-137104000D01*
X130810190Y-137151619D01*
X130857809Y-137246857D01*
X130857809Y-137389714D01*
X130810190Y-137484952D01*
X130762571Y-137532571D01*
X130667333Y-137580190D01*
X130286380Y-137580190D01*
X131714952Y-137389714D02*
X131714952Y-138056381D01*
X131286380Y-137389714D02*
X131286380Y-137913524D01*
X131333999Y-138008762D01*
X131429237Y-138056381D01*
X131572095Y-138056381D01*
X131667333Y-138008762D01*
X131714952Y-137961143D01*
X132333999Y-138056381D02*
X132238761Y-138008762D01*
X132191142Y-137913524D01*
X132191142Y-137056381D01*
X132667333Y-138008762D02*
X132762571Y-138056381D01*
X132953047Y-138056381D01*
X133048286Y-138008762D01*
X133095905Y-137913524D01*
X133095905Y-137865905D01*
X133048286Y-137770667D01*
X132953047Y-137723048D01*
X132810190Y-137723048D01*
X132714952Y-137675429D01*
X132667333Y-137580190D01*
X132667333Y-137532571D01*
X132714952Y-137437333D01*
X132810190Y-137389714D01*
X132953047Y-137389714D01*
X133048286Y-137437333D01*
X133953048Y-138056381D02*
X133953048Y-137532571D01*
X133905429Y-137437333D01*
X133810191Y-137389714D01*
X133619714Y-137389714D01*
X133524476Y-137437333D01*
X133953048Y-138008762D02*
X133857810Y-138056381D01*
X133619714Y-138056381D01*
X133524476Y-138008762D01*
X133476857Y-137913524D01*
X133476857Y-137818286D01*
X133524476Y-137723048D01*
X133619714Y-137675429D01*
X133857810Y-137675429D01*
X133953048Y-137627810D01*
X134857810Y-138056381D02*
X134857810Y-137056381D01*
X134857810Y-138008762D02*
X134762572Y-138056381D01*
X134572095Y-138056381D01*
X134476857Y-138008762D01*
X134429238Y-137961143D01*
X134381619Y-137865905D01*
X134381619Y-137580190D01*
X134429238Y-137484952D01*
X134476857Y-137437333D01*
X134572095Y-137389714D01*
X134762572Y-137389714D01*
X134857810Y-137437333D01*
X135476857Y-138056381D02*
X135381619Y-138008762D01*
X135334000Y-137961143D01*
X135286381Y-137865905D01*
X135286381Y-137580190D01*
X135334000Y-137484952D01*
X135381619Y-137437333D01*
X135476857Y-137389714D01*
X135619715Y-137389714D01*
X135714953Y-137437333D01*
X135762572Y-137484952D01*
X135810191Y-137580190D01*
X135810191Y-137865905D01*
X135762572Y-137961143D01*
X135714953Y-138008762D01*
X135619715Y-138056381D01*
X135476857Y-138056381D01*
X136238762Y-138056381D02*
X136238762Y-137389714D01*
X136238762Y-137580190D02*
X136286381Y-137484952D01*
X136334000Y-137437333D01*
X136429238Y-137389714D01*
X136524477Y-137389714D01*
X133012381Y-121416666D02*
X133012381Y-121988095D01*
X133012381Y-121702381D02*
X132012381Y-121702381D01*
X132155238Y-121797619D01*
X132250476Y-121892857D01*
X132298095Y-121988095D01*
X132012381Y-120797619D02*
X132012381Y-120702380D01*
X132060000Y-120607142D01*
X132107619Y-120559523D01*
X132202857Y-120511904D01*
X132393333Y-120464285D01*
X132631429Y-120464285D01*
X132821905Y-120511904D01*
X132917143Y-120559523D01*
X132964762Y-120607142D01*
X133012381Y-120702380D01*
X133012381Y-120797619D01*
X132964762Y-120892857D01*
X132917143Y-120940476D01*
X132821905Y-120988095D01*
X132631429Y-121035714D01*
X132393333Y-121035714D01*
X132202857Y-120988095D01*
X132107619Y-120940476D01*
X132060000Y-120892857D01*
X132012381Y-120797619D01*
X132345714Y-119607142D02*
X133012381Y-119607142D01*
X131964762Y-119845238D02*
X132679048Y-120083333D01*
X132679048Y-119464285D01*
X124499714Y-143357619D02*
X124547333Y-143310000D01*
X124642571Y-143262381D01*
X124880667Y-143262381D01*
X124975905Y-143310000D01*
X125023524Y-143357619D01*
X125071143Y-143452857D01*
X125071143Y-143548095D01*
X125023524Y-143690952D01*
X124452095Y-144262381D01*
X125071143Y-144262381D01*
X125452095Y-143357619D02*
X125499714Y-143310000D01*
X125594952Y-143262381D01*
X125833048Y-143262381D01*
X125928286Y-143310000D01*
X125975905Y-143357619D01*
X126023524Y-143452857D01*
X126023524Y-143548095D01*
X125975905Y-143690952D01*
X125404476Y-144262381D01*
X126023524Y-144262381D01*
X126452095Y-143595714D02*
X126452095Y-144595714D01*
X126452095Y-143643333D02*
X126547333Y-143595714D01*
X126737810Y-143595714D01*
X126833048Y-143643333D01*
X126880667Y-143690952D01*
X126928286Y-143786190D01*
X126928286Y-144071905D01*
X126880667Y-144167143D01*
X126833048Y-144214762D01*
X126737810Y-144262381D01*
X126547333Y-144262381D01*
X126452095Y-144214762D01*
X127833714Y-146833619D02*
X127881333Y-146786000D01*
X127976571Y-146738381D01*
X128214667Y-146738381D01*
X128309905Y-146786000D01*
X128357524Y-146833619D01*
X128405143Y-146928857D01*
X128405143Y-147024095D01*
X128357524Y-147166952D01*
X127786095Y-147738381D01*
X128405143Y-147738381D01*
X128786095Y-146833619D02*
X128833714Y-146786000D01*
X128928952Y-146738381D01*
X129167048Y-146738381D01*
X129262286Y-146786000D01*
X129309905Y-146833619D01*
X129357524Y-146928857D01*
X129357524Y-147024095D01*
X129309905Y-147166952D01*
X128738476Y-147738381D01*
X129357524Y-147738381D01*
X129786095Y-147071714D02*
X129786095Y-148071714D01*
X129786095Y-147119333D02*
X129881333Y-147071714D01*
X130071810Y-147071714D01*
X130167048Y-147119333D01*
X130214667Y-147166952D01*
X130262286Y-147262190D01*
X130262286Y-147547905D01*
X130214667Y-147643143D01*
X130167048Y-147690762D01*
X130071810Y-147738381D01*
X129881333Y-147738381D01*
X129786095Y-147690762D01*
M02*
