G04 #@! TF.FileFunction,Soldermask,Bot*
%FSLAX46Y46*%
G04 Gerber Fmt 4.6, Leading zero omitted, Abs format (unit mm)*
G04 Created by KiCad (PCBNEW 4.0.5) date Friday, 24 March 2017 'AMt' 09:48:18*
%MOMM*%
%LPD*%
G01*
G04 APERTURE LIST*
%ADD10C,0.100000*%
%ADD11R,2.000000X2.800000*%
%ADD12O,2.000000X2.800000*%
%ADD13C,2.400000*%
%ADD14R,2.400000X2.400000*%
%ADD15R,2.000000X2.000000*%
%ADD16C,2.000000*%
%ADD17R,2.200000X2.200000*%
%ADD18O,2.200000X2.200000*%
%ADD19C,1.800000*%
%ADD20O,1.800000X1.800000*%
%ADD21O,1.924000X1.924000*%
%ADD22O,2.432000X2.940000*%
%ADD23C,1.900000*%
%ADD24C,2.200000*%
%ADD25O,2.200000X1.700000*%
%ADD26C,1.700000*%
%ADD27R,3.000000X2.400000*%
%ADD28O,3.000000X2.400000*%
%ADD29C,1.543000*%
%ADD30R,3.400000X3.400000*%
%ADD31C,3.400000*%
G04 APERTURE END LIST*
D10*
D11*
X115000000Y-120000000D03*
D12*
X148020000Y-112380000D03*
X117540000Y-120000000D03*
X145480000Y-112380000D03*
X120080000Y-120000000D03*
X142940000Y-112380000D03*
X122620000Y-120000000D03*
X140400000Y-112380000D03*
X125160000Y-120000000D03*
X137860000Y-112380000D03*
X127700000Y-120000000D03*
X135320000Y-112380000D03*
X130240000Y-120000000D03*
X132780000Y-112380000D03*
X132780000Y-120000000D03*
X130240000Y-112380000D03*
X135320000Y-120000000D03*
X127700000Y-112380000D03*
X137860000Y-120000000D03*
X125160000Y-112380000D03*
X140400000Y-120000000D03*
X122620000Y-112380000D03*
X142940000Y-120000000D03*
X120080000Y-112380000D03*
X145480000Y-120000000D03*
X117540000Y-112380000D03*
X148020000Y-120000000D03*
X115000000Y-112380000D03*
D13*
X165000000Y-121799840D03*
X165000000Y-114200160D03*
D14*
X118000000Y-134000000D03*
D13*
X118000000Y-139000000D03*
D14*
X130000000Y-134000000D03*
D13*
X130000000Y-139000000D03*
D15*
X156000000Y-122000000D03*
D16*
X153500000Y-122000000D03*
D15*
X139000000Y-137000000D03*
D16*
X139000000Y-139500000D03*
D15*
X145000000Y-137000000D03*
D16*
X145000000Y-139500000D03*
D17*
X137000000Y-101000000D03*
D18*
X137000000Y-106080000D03*
D17*
X110000000Y-127000000D03*
D18*
X104920000Y-127000000D03*
D19*
X118000000Y-101000000D03*
D20*
X118000000Y-103540000D03*
D19*
X154000000Y-109000000D03*
D20*
X154000000Y-111540000D03*
D19*
X111000000Y-114000000D03*
D20*
X111000000Y-111460000D03*
D21*
X142000000Y-106000000D03*
X149620000Y-106000000D03*
X154700000Y-106000000D03*
X159780000Y-106000000D03*
X159780000Y-98380000D03*
X154700000Y-98380000D03*
X149620000Y-98380000D03*
X142000000Y-98380000D03*
D22*
X118000000Y-127000000D03*
X120540000Y-127000000D03*
X115460000Y-127000000D03*
D11*
X129000000Y-99000000D03*
D12*
X121380000Y-106620000D03*
X126460000Y-99000000D03*
X123920000Y-106620000D03*
X123920000Y-99000000D03*
X126460000Y-106620000D03*
X121380000Y-99000000D03*
X129000000Y-106620000D03*
D23*
X130000000Y-127000000D03*
X134900000Y-127000000D03*
D17*
X154000000Y-116000000D03*
D24*
X156540000Y-116000000D03*
D25*
X151730000Y-129730000D03*
D10*
G36*
X154378858Y-130823223D02*
X152823223Y-132378858D01*
X151621142Y-131176777D01*
X153176777Y-129621142D01*
X154378858Y-130823223D01*
X154378858Y-130823223D01*
G37*
D26*
X153176777Y-128636777D02*
X152823223Y-128283223D01*
D25*
X151730000Y-136730000D03*
D10*
G36*
X154378858Y-137823223D02*
X152823223Y-139378858D01*
X151621142Y-138176777D01*
X153176777Y-136621142D01*
X154378858Y-137823223D01*
X154378858Y-137823223D01*
G37*
D26*
X153176777Y-135636777D02*
X152823223Y-135283223D01*
D19*
X133000000Y-104000000D03*
D20*
X133000000Y-101460000D03*
D19*
X111000000Y-120000000D03*
D20*
X111000000Y-117460000D03*
D27*
X106000000Y-114000000D03*
D28*
X106000000Y-116540000D03*
X106000000Y-119080000D03*
D29*
X113000000Y-103000000D03*
D19*
X148000000Y-131000000D03*
D20*
X148000000Y-123380000D03*
D19*
X141000000Y-131000000D03*
D20*
X141000000Y-125920000D03*
D30*
X106426000Y-133858000D03*
D31*
X106426000Y-138938000D03*
D30*
X165862000Y-104648000D03*
D31*
X165862000Y-99568000D03*
D30*
X107950000Y-106172000D03*
D31*
X107950000Y-101092000D03*
M02*
